<?xml version="1.0" encoding="UTF-8"?>
<svg xmlns="http://www.w3.org/2000/svg" version="1.1" xmlns:cc="http://creativecommons.org/ns#" xmlns:dc="http://purl.org/dc/elements/1.1/" xmlns:rdf="http://www.w3.org/1999/02/22-rdf-syntax-ns#" xmlns:svg="http://www.w3.org/2000/svg" xmlns:xlink="http://www.w3.org/1999/xlink" viewBox="0 0 128 128">
  <defs>
    <style>
      .cls-1 {
        fill: #000;
      }

      .cls-1, .cls-2, .cls-3, .cls-4 {
        stroke-width: 0px;
      }

      .cls-2 {
        fill: #4a4aff;
      }

      .cls-3 {
        fill: #f3e517;
        fill-rule: evenodd;
      }

      .cls-4, .cls-5, .cls-6 {
        fill: none;
      }

      .cls-7 {
        clip-path: url(#clippath);
      }

      .cls-8 {
        display: none;
      }

      .cls-5 {
        stroke: #ffff27;
        stroke-width: 14px;
      }

      .cls-5, .cls-6 {
        stroke-linecap: round;
        stroke-linejoin: round;
      }

      .cls-6 {
        stroke: #ed2d00;
        stroke-width: 9px;
      }
    </style>
    <clipPath id="clippath">
      <path class="cls-4" d="M64,7.1c-13.3,0-25.4,4.1-34.3,11.1s-14.7,16.9-14.7,28v4C6.1,54.7,0,66.5,0,80.3c0,17.7,10,32,23,32V46.2c0-8.3,4.3-15.9,11.7-21.7,7.4-5.7,17.8-9.4,29.3-9.4s22,3.7,29.3,9.4,11.7,13.4,11.7,21.7v66.1c13,0,23-14.3,23-32s-6.1-25.6-15-30.1v-4c0-11.1-5.8-21-14.7-28-8.9-7-21-11.1-34.3-11.1ZM26,49.3v63c2,0,4-1,5-3v-58c-1-1-3-2-5-2ZM102,49.3c-2,0-4,1-5,2v58c1,2,3,3,5,3v-63Z"/>
    </clipPath>
  </defs>
  <g id="Layer_2" data-name="Layer 2">
    <g>
      <polyline class="cls-5" points="28.5 84.87 33.11 75.39 40.59 92.42 48.84 65.24 54.98 96.29 64 61.17"/>
      <polyline class="cls-5" points="99.5 85.34 94.89 75.86 87.41 92.88 79.16 65.7 73.02 96.75 64 61.63"/>
    </g>
    <g>
      <polyline class="cls-6" points="28.5 81.96 33.11 78.65 40.59 84.59 48.84 75.11 54.98 85.93 64 73.69"/>
      <polyline class="cls-6" points="99.5 82.12 94.89 78.81 87.41 84.75 79.16 75.27 73.02 86.1 64 73.85"/>
    </g>
  </g>
  <g id="Layer_1" data-name="Layer 1">
    <g id="svg2">
      <g id="layer2">
        <g id="g3586">
          <g id="path3178" class="cls-8">
            <path class="cls-3" d="M61.2,42.5c-2.3,5.7-4.5,15.2-7.2,4.3-2-7.8-6.3,4.9-9.4,7-6.3,4.8-9.7,11.5-12.5,18.7-7.4-6.3-4.6,3.8-5.1,8.7.4,7.4-.8,15.5.6,22.4,5.9,5.1,10.1,13.2,18.8,13,6,2.1,5.2-6.9,10.6.5,5,6.8,8,2.8,11.3-.5,4.7,7.3,6.2-8.7,10.2-1.5,6.2,2.4,11.7,3.6,12.7-4.6,1.3-6.4,12.4-6.6,9.8-14.3-.4-8,.7-16.7-.5-24.3-4.2-3.3-7.4-10.8-12.2-11.5-5.9,2.9-3.6-9.8-6.1-13.5-.8-9.8-2.9-5.4-5.2,1.3-1.3,9.7-6.6,5.1-9.3-1.3-2.4-2-5.2-12.7-6.6-4.5l.1.1Z"/>
          </g>
          <g class="cls-7">
            <g id="g2792">
              <path id="path2127" class="cls-1" d="M64,7.1c-13.3,0-25.4,4.1-34.3,11.1-8.9,7-14.7,16.9-14.7,28v4C6.1,54.7,0,66.5,0,80.3c0,17.7,10,32,23,32V46.2c0-8.3,4.3-15.9,11.7-21.7,7.4-5.7,17.8-9.4,29.3-9.4s22,3.7,29.3,9.4,11.7,13.4,11.7,21.7v66.1c13,0,23-14.3,23-32s-6.1-25.6-15-30.1v-4c0-11.1-5.8-21-14.7-28-8.9-7-21-11.1-34.3-11.1ZM26,49.3v63c2,0,4-1,5-3v-58c-1-1-3-2-5-2ZM102,49.3c-2,0-4,1-5,2v58c1,2,3,3,5,3v-63Z"/>
              <path id="path2140" class="cls-2" d="M60,5.1c-13.3,0-25.4,4.1-34.3,11.1-8.9,7-16.7,16.9-16.7,28v2C.1,50.7-9,62.5-9,76.3s12,28,25,28v-48c.7-2.9,3-2.5,3-4,0-12,7.6-26,14-31,7.4-5.7,15.4-9,27-9s22,2.5,29.3,8.3,11.7,13.4,11.7,21.7v68.1c1.1,0,1.9-2.8,3-3,11.2-2.3,19-14.9,19-31s-4.1-21.5-13-26l-1-8.1c0-11.1-5.8-21-14.7-28-8.9-7-21-9.1-34.3-9.1v-.1ZM25,45.3l-2,62c2,0,7-1,8-3v-57c-1-1-4-2-6-2ZM99,45.3c-2,0-4,1-5,2v58c1,2,3,4,5,4V45.3Z"/>
            </g>
          </g>
        </g>
      </g>
    </g>
  </g>
</svg>