<?xml version="1.0" encoding="UTF-8"?>
<svg xmlns="http://www.w3.org/2000/svg" version="1.1" xmlns:cc="http://creativecommons.org/ns#" xmlns:dc="http://purl.org/dc/elements/1.1/" xmlns:rdf="http://www.w3.org/1999/02/22-rdf-syntax-ns#" xmlns:svg="http://www.w3.org/2000/svg" xmlns:xlink="http://www.w3.org/1999/xlink" viewBox="0 0 128 128">
  <defs>
    <style>
      .cls-1, .cls-2, .cls-3, .cls-4, .cls-5, .cls-6, .cls-7, .cls-8 {
        stroke-width: 0px;
      }

      .cls-1, .cls-8 {
        fill: #ffff27;
      }

      .cls-2 {
        fill: #000;
      }

      .cls-9 {
        filter: url(#filter3242);
      }

      .cls-9, .cls-10 {
        display: none;
      }

      .cls-3 {
        fill: #4a4aff;
      }

      .cls-4, .cls-5, .cls-8 {
        fill-rule: evenodd;
      }

      .cls-4, .cls-7 {
        fill: #ed2d00;
      }

      .cls-5 {
        fill: #f3e517;
      }

      .cls-6 {
        fill: none;
      }

      .cls-11 {
        clip-path: url(#clippath-1);
      }
    </style>
    <filter id="filter3242" x="-0.10011429" y="-0.092210524" width="1.2002286" height="1.1844211">
      <feGaussianBlur stdDeviation="2.92"/>
    </filter>
    <filter id="filter3326">
      <feGaussianBlur stdDeviation="0.35326172"/>
    </filter>
    <clipPath id="clippath-1">
      <path class="cls-6" d="M64,7.1c-13.3,0-25.4,4.1-34.3,11.1s-14.7,16.9-14.7,28v4C6.1,54.7,0,66.5,0,80.3c0,17.7,10,32,23,32V46.2c0-8.3,4.3-15.9,11.7-21.7,7.4-5.7,17.8-9.4,29.3-9.4s22,3.7,29.3,9.4,11.7,13.4,11.7,21.7v66.1c13,0,23-14.3,23-32s-6.1-25.6-15-30.1v-4c0-11.1-5.8-21-14.7-28-8.9-7-21-11.1-34.3-11.1ZM26,49.3v63c2,0,4-1,5-3v-58c-1-1-3-2-5-2ZM102,49.3c-2,0-4,1-5,2v58c1,2,3,3,5,3v-63Z"/>
    </clipPath>
  </defs>
  <g id="Layer_4" data-name="Layer 4" class="cls-10">
    <path class="cls-8" d="M31,68.3l3.3,4.3,4.9-20.1,3.3,2.1,3.6,15.5,2.3-8.9,1.9-.7,8.5,12.1,3.3-21.8h2.9c0,0,3.5,5.4,3.5,5.4l2,7.7,3.9-8.7,2.3,1,2,7.7,3.6-7.7h2.5l2.6,13.8,3.8-6h2.8l2.9,4.2.7,24.3h-3.6l-2.6-3.9-4.3,8.4h-3.5l-2.7-3-4.2,5.9h-3l-2-6.2-.7-4.8-3.5,8.2s.7,1.3-.2.9-2.9-1.7-2.9-1.7l-2.1,9s-.9,3-1.3,3-4.6.1-4.6.1l-3.2-6.8-2.5-7.1-3.2,5.6-4-1.1-2-5.2-3.6,5.2-3.8,1.2-2-3.8-2.5-5.1-2.4-28.8,3.9,5.9Z"/>
  </g>
  <g id="Layer_3" data-name="Layer 3" class="cls-10">
    <polygon class="cls-4" points="31 73.9 36.6 81.6 40.2 62.2 46.6 80.2 50.1 66.7 60.1 80.2 64.9 60.5 72.1 75.7 74.6 63.4 79.5 74.3 82.7 67.3 87.4 81.3 93.9 71 97 78.6 97 88.1 93.2 81.7 85.1 90 81.8 80.8 75.7 95.2 71.4 80.8 67.1 92.9 63.5 80.8 59.8 102.2 51 80.2 46 93.1 41.6 82.3 36.9 93.6 31 85.6 31 73.9"/>
  </g>
  <g id="Layer_6" data-name="Layer 6">
    <polygon class="cls-1" points="31 64.3 48 52.5 77.6 73.1 97.2 59.6 97.2 89 77 102.9 48.2 83 30.2 95.4 31 64.3"/>
  </g>
  <g id="Layer_5" data-name="Layer 5">
    <polygon class="cls-7" points="31 75.4 47.8 63.7 77.3 84.1 96.7 70.7 96.7 76.7 77.4 90.1 48 69.8 31 80.3 31 75.4"/>
  </g>
  <g id="svg2">
    <g id="layer2">
      <g id="g3586">
        <g id="path3178" class="cls-9">
          <path class="cls-5" d="M61.2,42.5c-2.3,5.7-4.5,15.2-7.2,4.3-2-7.8-6.3,4.9-9.4,7-6.3,4.8-9.7,11.5-12.5,18.7-7.4-6.3-4.6,3.8-5.1,8.7.4,7.4-.8,15.5.6,22.4,5.9,5.1,10.1,13.2,18.8,13,6,2.1,5.2-6.9,10.6.5,5,6.8,8,2.8,11.3-.5,4.7,7.3,6.2-8.7,10.2-1.5,6.2,2.4,11.7,3.6,12.7-4.6,1.3-6.4,12.4-6.6,9.8-14.3-.4-8,.7-16.7-.5-24.3-4.2-3.3-7.4-10.8-12.2-11.5-5.9,2.9-3.6-9.8-6.1-13.5-.8-9.8-2.9-5.4-5.2,1.3-1.3,9.7-6.6,5.1-9.3-1.3-2.4-2-5.2-12.7-6.6-4.5Z"/>
        </g>
        <g class="cls-11">
          <g id="g2792">
            <path id="path2127" class="cls-2" d="M64,7.1c-13.3,0-25.4,4.1-34.3,11.1s-14.7,16.9-14.7,28v4C6.1,54.7,0,66.5,0,80.3c0,17.7,10,32,23,32V46.2c0-8.3,4.3-15.9,11.7-21.7,7.4-5.7,17.8-9.4,29.3-9.4s22,3.7,29.3,9.4,11.7,13.4,11.7,21.7v66.1c13,0,23-14.3,23-32s-6.1-25.6-15-30.1v-4c0-11.1-5.8-21-14.7-28-8.9-7-21-11.1-34.3-11.1ZM26,49.3v63c2,0,4-1,5-3v-58c-1-1-3-2-5-2ZM102,49.3c-2,0-4,1-5,2v58c1,2,3,3,5,3v-63Z"/>
            <path id="path2140" class="cls-3" d="M60,5.1c-13.3,0-25.4,4.1-34.3,11.1s-16.7,16.9-16.7,28v2C.1,50.7-9,62.5-9,76.3s12,28,25,28v-48c.7-2.9,3-2.5,3-4,0-12,7.6-26,14-31,7.4-5.7,15.4-9,27-9s22,2.5,29.3,8.3,11.7,13.4,11.7,21.7v68.1c1.1,0,1.9-2.8,3-3,11.2-2.3,19-14.9,19-31s-4.1-21.5-13-26l-1-8.1c0-11.1-5.8-21-14.7-28-8.9-7-21-9.1-34.3-9.1ZM25,45.3l-2,62c2,0,7-1,8-3v-57c-1-1-4-2-6-2ZM99,45.3c-2,0-4,1-5,2v58c1,2,3,4,5,4V45.3Z"/>
          </g>
        </g>
      </g>
    </g>
  </g>
</svg>