<?xml version="1.0" encoding="UTF-8"?>
<svg id="Layer_1" data-name="Layer 1" xmlns="http://www.w3.org/2000/svg" version="1.1" xmlns:xlink="http://www.w3.org/1999/xlink" viewBox="0 0 700 659">
  <defs>
    <style>
      .cls-1 {
        fill: url(#linear-gradient);
      }

      .cls-1, .cls-2, .cls-3, .cls-4, .cls-5 {
        stroke-width: 0px;
      }

      .cls-2 {
        fill: #000;
      }

      .cls-3 {
        fill: url(#linear-gradient-2);
      }

      .cls-4 {
        fill: #8d8d8d;
      }

      .cls-5 {
        fill: #f8f8f8;
      }
    </style>
    <linearGradient id="linear-gradient" x1="-532" y1="696.6" x2="-532" y2="670.1" gradientTransform="translate(13650.9 17412.7) scale(25 -25)" gradientUnits="userSpaceOnUse">
      <stop offset="0" stop-color="#d8d8d8"/>
      <stop offset="1" stop-color="#a3a3a3"/>
    </linearGradient>
    <linearGradient id="linear-gradient-2" x1="-513.4" y1="654.7" x2="-490.5" y2="654.7" gradientTransform="translate(10793.2 14020) scale(20.8 -20.9)" gradientUnits="userSpaceOnUse">
      <stop offset="0" stop-color="#d7d7d7"/>
      <stop offset=".5" stop-color="#e7e7e7"/>
      <stop offset="1" stop-color="#d7d7d7"/>
    </linearGradient>
  </defs>
  <rect class="cls-1" y=".1" width="700" height="658.8" rx="77.2" ry="77.2"/>
  <path class="cls-4" d="M621.4,659H78.6c-43.4,0-78.5-35.2-78.6-78.6V78.6C0,35.2,35.2,0,78.6,0h542.8c43.4,0,78.5,35.2,78.6,78.6v501.9c0,43.4-35.2,78.5-78.6,78.6ZM78.6,3.6C37.2,3.6,3.6,37.2,3.6,78.6h0v501.9c0,41.4,33.6,75,75,75h542.8c41.4,0,75-33.6,75-75V78.6c0-41.4-33.6-75-75-75H78.6Z"/>
  <rect class="cls-3" x="57.8" y="45.5" width="579.2" height="548.5" rx="64.3" ry="64.3"/>
  <path class="cls-5" d="M572.8,595.6H122.1c-36.3,0-65.7-29.5-65.8-65.8V109.8c0-36.3,29.5-65.7,65.8-65.8h450.7c36.3,0,65.7,29.5,65.8,65.8v420c0,36.3-29.5,65.7-65.8,65.7ZM122.1,47c-34.7,0-62.7,28.1-62.8,62.8v420c0,34.7,28.1,62.7,62.8,62.8h450.7c34.7,0,62.7-28.1,62.8-62.8V109.8c0-34.7-28.1-62.8-62.8-62.8H122.1Z"/>
  <path class="cls-2" d="M103.6,527l58.6-152.5h21.7l62.5,152.5h-23l-17.8-46.2h-63.8l-16.8,46.2h-21.4ZM147.5,464.5h51.8l-15.9-42.5c-4.9-12.8-8.5-23.4-10.8-31.6-2,9.9-4.7,19.6-8.2,29.1l-16.9,45Z"/>
  <path class="cls-2" d="M290.2,527v-152.5h20.2v62.5h79.3v-62.5h20.2v152.5h-20.2v-72h-79.3v72h-20.2Z"/>
  <path class="cls-2" d="M462,527v-152.5h20.2v75.6l75.8-75.6h27.3l-64,61.7,66.8,90.8h-26.6l-54.3-77.2-25,24.3v52.9h-20.1Z"/>
</svg>