<?xml version="1.0" encoding="UTF-8"?>
<svg id="Layer_1" data-name="Layer 1" xmlns="http://www.w3.org/2000/svg" version="1.1" viewBox="0 0 256 361">
  <defs>
    <style>
      .cls-1 {
        fill: #2965f1;
      }

      .cls-1, .cls-2, .cls-3, .cls-4 {
        stroke-width: 0px;
      }

      .cls-2 {
        fill: #ebebeb;
      }

      .cls-3 {
        fill: #264de4;
      }

      .cls-4 {
        fill: #fff;
      }
    </style>
  </defs>
  <path class="cls-3" d="M127.8,360.1l-104.2-28.9L.4,70.8h255.1l-23.2,260.4-104.5,29h0Z"/>
  <path class="cls-1" d="M212.4,314.5l19.9-222.5h-104.3v245.9l84.4-23.4h0Z"/>
  <path class="cls-2" d="M53.7,188.6l2.9,31.9h71.5v-31.9H53.7Z"/>
  <path class="cls-2" d="M47.9,124l2.9,31.9h77.2v-31.9H47.9Z"/>
  <path class="cls-2" d="M128,271.6h-.1s-35.6-9.6-35.6-9.6l-2.3-25.5h-32.1l4.5,50.1,65.4,18.2h.1v-33.3h0Z"/>
  <path class="cls-3" d="M60.5,0h38.7v16.2h-22.5v16.2h22.5v16.2h-38.7V0h0Z"/>
  <path class="cls-3" d="M106.9,0h38.7v14.1h-22.5v2.8h22.5v32.4h-38.7v-14.8h22.5v-2.8h-22.5V0Z"/>
  <path class="cls-3" d="M153.3,0h38.7v14.1h-22.5v2.8h22.5v32.4h-38.7v-14.8h22.5v-2.8h-22.5V0h0Z"/>
  <path class="cls-4" d="M202.1,188.6l5.8-64.6h-80v31.9h45l-2.9,32.7h-42.1v31.9h39.3l-3.7,41.4-35.6,9.6v33.2l65.5-18.1.5-5.4,7.5-84.1.8-8.6h0Z"/>
</svg>