<?xml version="1.0" encoding="UTF-8"?>
<svg id="Layer_1" data-name="Layer 1" xmlns="http://www.w3.org/2000/svg" version="1.1" viewBox="0 0 408 408">
  <defs>
    <style>
      .cls-1 {
        fill: #2965f1;
      }

      .cls-1, .cls-2, .cls-3, .cls-4 {
        stroke-width: 0px;
      }

      .cls-2 {
        fill: #ebebeb;
      }

      .cls-3 {
        fill: #264de4;
      }

      .cls-4 {
        fill: #fff;
      }
    </style>
  </defs>
  <path class="cls-3" d="M203.8,407.9l-118-32.7L59.5,80.2h289l-26.3,295-118.4,32.8h0Z"/>
  <path class="cls-1" d="M299.7,356.2l22.5-252h-118.1v278.5l95.6-26.5h0Z"/>
  <path class="cls-2" d="M119.9,213.6l3.3,36.1h81v-36.1h-84.3Z"/>
  <path class="cls-2" d="M113.3,140.5l3.3,36.1h87.4v-36.1s-90.7,0-90.7,0Z"/>
  <path class="cls-2" d="M204.1,307.6h-.1l-40.3-10.9-2.6-28.9h-36.4l5.1,56.7,74.1,20.6h.1v-37.7h.1Z"/>
  <path class="cls-3" d="M127.6,0h43.8v18.3h-25.5v18.3h25.5v18.3h-43.8V0h0Z"/>
  <path class="cls-3" d="M180.2,0h43.8v16h-25.5v3.2h25.5v36.7h-43.8v-16.8h25.5v-3.2h-25.5s0-35.9,0-35.9Z"/>
  <path class="cls-3" d="M232.7,0h43.8v16h-25.5v3.2h25.5v36.7h-43.8v-16.8h25.5v-3.2h-25.5V0h0Z"/>
  <path class="cls-4" d="M288,213.6l6.6-73.2h-90.6v36.1h51l-3.3,37h-47.7v36.1h44.5l-4.2,46.9-40.3,10.9v37.6l74.2-20.5.6-6.1,8.5-95.3.9-9.7h-.1Z"/>
</svg>