<svg width="2367" height="2367" viewBox="0 0 2367 2367" fill="none" xmlns="http://www.w3.org/2000/svg">
<path d="M788.5 2367C1006.26 2367 1183 2190.26 1183 1972.5V1578H788.5C570.736 1578 394 1754.74 394 1972.5C394 2190.26 570.736 2367 788.5 2367Z" fill="#0ACF83"/>
<path d="M394 1183.5C394 965.736 570.736 789 788.5 789H1183V1578H788.5C570.736 1578 394 1401.26 394 1183.5Z" fill="#A259FF"/>
<path d="M394 394.5C394 176.736 570.736 0 788.5 0H1183V789H788.5C570.736 789 394 612.264 394 394.5Z" fill="#F24E1E"/>
<path d="M1183 0H1577.5C1795.26 0 1972 176.736 1972 394.5C1972 612.264 1795.26 789 1577.5 789H1183V0Z" fill="#FF7262"/>
<path d="M1972 1183.5C1972 1401.26 1795.26 1578 1577.5 1578C1359.74 1578 1183 1401.26 1183 1183.5C1183 965.736 1359.74 789 1577.5 789C1795.26 789 1972 965.736 1972 1183.5Z" fill="#1ABCFE"/>
</svg>
