<?xml version="1.0" encoding="UTF-8"?>
<svg id="Layer_1" data-name="Layer 1" xmlns="http://www.w3.org/2000/svg" version="1.1" xmlns:xlink="http://www.w3.org/1999/xlink" viewBox="0 0 66 66">
  <defs>
    <style>
      .cls-1 {
        fill-rule: evenodd;
      }

      .cls-1, .cls-2, .cls-3, .cls-4, .cls-5, .cls-6, .cls-7, .cls-8, .cls-9, .cls-10 {
        stroke-width: 0px;
      }

      .cls-1, .cls-3, .cls-6 {
        fill: #fff;
      }

      .cls-2 {
        fill: url(#linear-gradient);
      }

      .cls-11 {
        mask: url(#mask-6-2);
      }

      .cls-3, .cls-10 {
        fill-opacity: .1;
      }

      .cls-12 {
        mask: url(#mask-3);
      }

      .cls-13 {
        mask: url(#mask-5);
      }

      .cls-4 {
        fill: #f4b400;
      }

      .cls-5 {
        fill: #fada80;
      }

      .cls-6, .cls-9 {
        fill-opacity: .2;
      }

      .cls-7 {
        fill: url(#radial-gradient);
      }

      .cls-14 {
        mask: url(#mask-2-2);
      }

      .cls-8 {
        fill: #f1f1f1;
      }

      .cls-9, .cls-10 {
        fill: #bf360c;
      }

      .cls-15 {
        mask: url(#mask-4-2);
      }

      .cls-16 {
        mask: url(#mask-1);
      }

      .cls-17 {
        mask: url(#mask);
      }

      .cls-18 {
        mask: url(#mask-7);
      }
    </style>
    <mask id="mask" x="9" y="0" width="48" height="66" maskUnits="userSpaceOnUse">
      <g id="mask-2">
        <path id="path-1" class="cls-1" d="M39,0H13.5C11,0,9,2,9,4.5v57c0,2.5,2,4.5,4.5,4.5h39c2.5,0,4.5-2,4.5-4.5V18L39,0Z"/>
      </g>
    </mask>
    <mask id="mask-1" x="9" y="0" width="48" height="66" maskUnits="userSpaceOnUse">
      <g id="mask-4">
        <path id="path-3" class="cls-1" d="M39,0H13.5C11,0,9,2,9,4.5v57c0,2.5,2,4.5,4.5,4.5h39c2.5,0,4.5-2,4.5-4.5V18L39,0Z"/>
      </g>
    </mask>
    <mask id="mask-2-2" data-name="mask-2" x="9" y="0" width="48" height="66" maskUnits="userSpaceOnUse">
      <g id="mask-6">
        <path id="path-5" class="cls-1" d="M39,0H13.5C11,0,9,2,9,4.5v57c0,2.5,2,4.5,4.5,4.5h39c2.5,0,4.5-2,4.5-4.5V18L39,0Z"/>
      </g>
    </mask>
    <linearGradient id="linear-gradient" x1="-868.6" y1="543.1" x2="-868.6" y2="542.2" gradientTransform="translate(14339.5 8951.8) scale(16.5 -16.4)" gradientUnits="userSpaceOnUse">
      <stop offset="0" stop-color="#bf360c" stop-opacity=".2"/>
      <stop offset="1" stop-color="#bf360c" stop-opacity="0"/>
    </linearGradient>
    <mask id="mask-3" x="9" y="0" width="48" height="66" maskUnits="userSpaceOnUse">
      <g id="mask-9">
        <path id="path-8" class="cls-1" d="M39,0H13.5C11,0,9,2,9,4.5v57c0,2.5,2,4.5,4.5,4.5h39c2.5,0,4.5-2,4.5-4.5V18L39,0Z"/>
      </g>
    </mask>
    <mask id="mask-4-2" data-name="mask-4" x="9" y="0" width="48" height="66" maskUnits="userSpaceOnUse">
      <g id="mask-11">
        <path id="path-10" class="cls-1" d="M39,0H13.5C11,0,9,2,9,4.5v57c0,2.5,2,4.5,4.5,4.5h39c2.5,0,4.5-2,4.5-4.5V18L39,0Z"/>
      </g>
    </mask>
    <mask id="mask-5" x="9" y="0" width="48" height="66" maskUnits="userSpaceOnUse">
      <g id="mask-13">
        <path id="path-12" class="cls-1" d="M39,0H13.5C11,0,9,2,9,4.5v57c0,2.5,2,4.5,4.5,4.5h39c2.5,0,4.5-2,4.5-4.5V18L39,0Z"/>
      </g>
    </mask>
    <mask id="mask-6-2" data-name="mask-6" x="9" y="0" width="48" height="66" maskUnits="userSpaceOnUse">
      <g id="mask-15">
        <path id="path-14" class="cls-1" d="M39,0H13.5C11,0,9,2,9,4.5v57c0,2.5,2,4.5,4.5,4.5h39c2.5,0,4.5-2,4.5-4.5V18L39,0Z"/>
      </g>
    </mask>
    <mask id="mask-7" x="9" y="0" width="48" height="66" maskUnits="userSpaceOnUse">
      <g id="mask-17">
        <path id="path-16" class="cls-1" d="M39,0H13.5C11,0,9,2,9,4.5v57c0,2.5,2,4.5,4.5,4.5h39c2.5,0,4.5-2,4.5-4.5V18L39,0Z"/>
      </g>
    </mask>
    <radialGradient id="radial-gradient" cx="-906.2" cy="563.3" fx="-906.2" fy="563.3" r="1.6" gradientTransform="translate(42904.7 26663.8) scale(47.3 -47.3)" gradientUnits="userSpaceOnUse">
      <stop offset="0" stop-color="#fff" stop-opacity=".1"/>
      <stop offset="1" stop-color="#fff" stop-opacity="0"/>
    </radialGradient>
  </defs>
  <g id="Page-1">
    <g id="Consumer-Apps-Slides-Large-VD-R8">
      <g id="Hero">
        <g id="Personal">
          <g id="Slides-icon">
            <g id="Group">
              <g id="Clipped">
                <g class="cls-17">
                  <path id="Path" class="cls-4" d="M39,0H13.5C11,0,9,2,9,4.5v57c0,2.5,2,4.5,4.5,4.5h39c2.5,0,4.5-2,4.5-4.5V18l-10.5-7.5L39,0Z"/>
                </g>
              </g>
              <g id="Clipped-2" data-name="Clipped">
                <g class="cls-16">
                  <path id="Shape" class="cls-8" d="M42.7,30h-19.5c-1.2,0-2.2,1-2.2,2.2v19.5c0,1.2,1,2.2,2.2,2.2h19.5c1.2,0,2.2-1,2.2-2.2v-19.5c0-1.2-1-2.2-2.2-2.2ZM42,47.2h-18v-10.5h18v10.5Z"/>
                </g>
              </g>
              <g id="Clipped-3" data-name="Clipped">
                <g class="cls-14">
                  <polygon id="Path-2" data-name="Path" class="cls-2" points="40.3 16.7 57 33.4 57 18 40.3 16.7"/>
                </g>
              </g>
              <g id="Clipped-4" data-name="Clipped">
                <g class="cls-12">
                  <g id="Group-2" data-name="Group">
                    <path id="Path-3" data-name="Path" class="cls-5" d="M39,0v13.5c0,2.5,2,4.5,4.5,4.5h13.5L39,0Z"/>
                  </g>
                </g>
              </g>
              <g id="Clipped-5" data-name="Clipped">
                <g class="cls-15">
                  <polygon id="Path-4" data-name="Path" class="cls-3" points="39 0 39 .4 56.6 18 57 18 39 0"/>
                </g>
              </g>
              <g id="Clipped-6" data-name="Clipped">
                <g class="cls-13">
                  <path id="Path-5" data-name="Path" class="cls-6" d="M13.5,0C11,0,9,2,9,4.5v.4C9,2.4,11,.4,13.5.4h25.5V0H13.5Z"/>
                </g>
              </g>
              <g id="Clipped-7" data-name="Clipped">
                <g class="cls-11">
                  <path id="Path-6" data-name="Path" class="cls-9" d="M52.5,65.6H13.5c-2.5,0-4.5-2-4.5-4.5v.4c0,2.5,2,4.5,4.5,4.5h39c2.5,0,4.5-2,4.5-4.5v-.4c0,2.5-2,4.5-4.5,4.5Z"/>
                </g>
              </g>
              <g id="Clipped-8" data-name="Clipped">
                <g class="cls-18">
                  <path id="Path-7" data-name="Path" class="cls-10" d="M43.5,18c-2.5,0-4.5-2-4.5-4.5v.4c0,2.5,2,4.5,4.5,4.5h13.5v-.4h-13.5Z"/>
                </g>
              </g>
            </g>
            <path id="Path-8" data-name="Path" class="cls-7" d="M39,0H13.5C11,0,9,2,9,4.5v57c0,2.5,2,4.5,4.5,4.5h39c2.5,0,4.5-2,4.5-4.5V18L39,0Z"/>
          </g>
        </g>
      </g>
    </g>
  </g>
</svg>