<?xml version="1.0" encoding="UTF-8"?>
<svg id="Layer_1" data-name="Layer 1" xmlns="http://www.w3.org/2000/svg" version="1.1" xmlns:xlink="http://www.w3.org/1999/xlink" viewBox="0 0 67 67">
  <defs>
    <style>
      .cls-1 {
        fill-rule: evenodd;
      }

      .cls-1, .cls-2, .cls-3, .cls-4, .cls-5, .cls-6, .cls-7, .cls-8, .cls-9 {
        stroke-width: 0px;
      }

      .cls-1, .cls-4 {
        fill: #fff;
      }

      .cls-2 {
        fill: url(#linear-gradient);
      }

      .cls-10 {
        mask: url(#mask-6-2);
      }

      .cls-11 {
        mask: url(#mask-3);
      }

      .cls-12 {
        mask: url(#mask-5);
      }

      .cls-3, .cls-4 {
        fill-opacity: .2;
      }

      .cls-3, .cls-9 {
        fill: #263238;
      }

      .cls-5 {
        fill: url(#radial-gradient);
      }

      .cls-13 {
        mask: url(#mask-2-2);
      }

      .cls-6 {
        fill: #f1f1f1;
      }

      .cls-7 {
        fill: #87ceac;
      }

      .cls-8 {
        fill: #0f9d58;
      }

      .cls-14 {
        mask: url(#mask-4-2);
      }

      .cls-15 {
        mask: url(#mask-1);
      }

      .cls-16 {
        mask: url(#mask);
      }

      .cls-9 {
        fill-opacity: .1;
      }
    </style>
    <mask id="mask" x="9.1" y="-.1" width="48.8" height="67.1" maskUnits="userSpaceOnUse">
      <g id="mask-2">
        <path id="path-1" class="cls-1" d="M39.6-.1H13.7c-2.5,0-4.6,2.1-4.6,4.6v58c0,2.5,2.1,4.6,4.6,4.6h39.7c2.5,0,4.6-2.1,4.6-4.6V18.2L39.6-.1Z"/>
      </g>
    </mask>
    <mask id="mask-1" x="9.1" y="-.1" width="48.8" height="67.1" maskUnits="userSpaceOnUse">
      <g id="mask-4">
        <path id="path-3" class="cls-1" d="M39.6-.1H13.7c-2.5,0-4.6,2.1-4.6,4.6v58c0,2.5,2.1,4.6,4.6,4.6h39.7c2.5,0,4.6-2.1,4.6-4.6V18.2L39.6-.1Z"/>
      </g>
    </mask>
    <mask id="mask-2-2" data-name="mask-2" x="9.1" y="-.1" width="48.8" height="67.1" maskUnits="userSpaceOnUse">
      <g id="mask-6">
        <path id="path-5" class="cls-1" d="M39.6-.1H13.7c-2.5,0-4.6,2.1-4.6,4.6v58c0,2.5,2.1,4.6,4.6,4.6h39.7c2.5,0,4.6-2.1,4.6-4.6V18.2L39.6-.1Z"/>
      </g>
    </mask>
    <linearGradient id="linear-gradient" x1="-868.6" y1="543.2" x2="-868.6" y2="542.2" gradientTransform="translate(14340.3 8952.8) scale(16.5 -16.4)" gradientUnits="userSpaceOnUse">
      <stop offset="0" stop-color="#263238" stop-opacity=".2"/>
      <stop offset="1" stop-color="#263238" stop-opacity="0"/>
    </linearGradient>
    <mask id="mask-3" x="9.1" y="-.1" width="48.8" height="67.1" maskUnits="userSpaceOnUse">
      <g id="mask-9">
        <path id="path-8" class="cls-1" d="M39.6-.1H13.7c-2.5,0-4.6,2.1-4.6,4.6v58c0,2.5,2.1,4.6,4.6,4.6h39.7c2.5,0,4.6-2.1,4.6-4.6V18.2L39.6-.1Z"/>
      </g>
    </mask>
    <mask id="mask-4-2" data-name="mask-4" x="9.1" y="-.1" width="48.8" height="67.1" maskUnits="userSpaceOnUse">
      <g id="mask-11">
        <path id="path-10" class="cls-1" d="M39.6-.1H13.7c-2.5,0-4.6,2.1-4.6,4.6v58c0,2.5,2.1,4.6,4.6,4.6h39.7c2.5,0,4.6-2.1,4.6-4.6V18.2L39.6-.1Z"/>
      </g>
    </mask>
    <mask id="mask-5" x="9.1" y="-.1" width="48.8" height="67.1" maskUnits="userSpaceOnUse">
      <g id="mask-13">
        <path id="path-12" class="cls-1" d="M39.6-.1H13.7c-2.5,0-4.6,2.1-4.6,4.6v58c0,2.5,2.1,4.6,4.6,4.6h39.7c2.5,0,4.6-2.1,4.6-4.6V18.2L39.6-.1Z"/>
      </g>
    </mask>
    <mask id="mask-6-2" data-name="mask-6" x="9.1" y="-.1" width="48.8" height="67.1" maskUnits="userSpaceOnUse">
      <g id="mask-15">
        <path id="path-14" class="cls-1" d="M39.6-.1H13.7c-2.5,0-4.6,2.1-4.6,4.6v58c0,2.5,2.1,4.6,4.6,4.6h39.7c2.5,0,4.6-2.1,4.6-4.6V18.2L39.6-.1Z"/>
      </g>
    </mask>
    <radialGradient id="radial-gradient" cx="-906.2" cy="563.3" fx="-906.2" fy="563.3" r="1.7" gradientTransform="translate(42905.5 26664.8) scale(47.3 -47.3)" gradientUnits="userSpaceOnUse">
      <stop offset="0" stop-color="#fff" stop-opacity=".1"/>
      <stop offset="1" stop-color="#fff" stop-opacity="0"/>
    </radialGradient>
  </defs>
  <g id="Page-1">
    <g id="Consumer-Apps-Sheets-Large-VD-R8-">
      <g id="Hero">
        <g id="Personal">
          <g id="Sheets-icon">
            <g id="Group">
              <g id="Clipped">
                <g class="cls-16">
                  <path id="Path" class="cls-8" d="M39.6-.1H13.7c-2.5,0-4.6,2.1-4.6,4.6v58c0,2.5,2.1,4.6,4.6,4.6h39.7c2.5,0,4.6-2.1,4.6-4.6V18.2l-10.7-7.6L39.6-.1Z"/>
                </g>
              </g>
              <g id="Clipped-2" data-name="Clipped">
                <g class="cls-15">
                  <path id="Shape" class="cls-6" d="M21.3,32.7v22.1h24.4v-22.1h-24.4ZM32,51.7h-7.6v-3.8h7.6v3.8ZM32,45.6h-7.6v-3.8h7.6v3.8ZM32,39.5h-7.6v-3.8h7.6v3.8ZM42.7,51.7h-7.6v-3.8h7.6v3.8ZM42.7,45.6h-7.6v-3.8h7.6v3.8ZM42.7,39.5h-7.6v-3.8h7.6v3.8Z"/>
                </g>
              </g>
              <g id="Clipped-3" data-name="Clipped">
                <g class="cls-13">
                  <polygon id="Path-2" data-name="Path" class="cls-2" points="40.9 16.9 57.9 33.8 57.9 18.2 40.9 16.9"/>
                </g>
              </g>
              <g id="Clipped-4" data-name="Clipped">
                <g class="cls-11">
                  <g id="Group-2" data-name="Group">
                    <path id="Path-3" data-name="Path" class="cls-7" d="M39.6-.1v13.7c0,2.5,2,4.6,4.6,4.6h13.7L39.6-.1Z"/>
                  </g>
                </g>
              </g>
              <g id="Clipped-5" data-name="Clipped">
                <g class="cls-14">
                  <path id="Path-4" data-name="Path" class="cls-4" d="M13.7-.1c-2.5,0-4.6,2.1-4.6,4.6v.4C9.1,2.3,11.2.3,13.7.3h25.9V-.1H13.7Z"/>
                </g>
              </g>
              <g id="Clipped-6" data-name="Clipped">
                <g class="cls-12">
                  <path id="Path-5" data-name="Path" class="cls-3" d="M53.3,66.6H13.7c-2.5,0-4.6-2.1-4.6-4.6v.4c0,2.5,2.1,4.6,4.6,4.6h39.7c2.5,0,4.6-2.1,4.6-4.6v-.4c0,2.5-2.1,4.6-4.6,4.6Z"/>
                </g>
              </g>
              <g id="Clipped-7" data-name="Clipped">
                <g class="cls-10">
                  <path id="Path-6" data-name="Path" class="cls-9" d="M44.2,18.2c-2.5,0-4.6-2-4.6-4.6v.4c0,2.5,2,4.6,4.6,4.6h13.7v-.4h-13.7Z"/>
                </g>
              </g>
            </g>
            <path id="Path-7" data-name="Path" class="cls-5" d="M39.6-.1H13.7c-2.5,0-4.6,2.1-4.6,4.6v58c0,2.5,2.1,4.6,4.6,4.6h39.7c2.5,0,4.6-2.1,4.6-4.6V18.2L39.6-.1Z"/>
          </g>
        </g>
      </g>
    </g>
  </g>
</svg>