<?xml version="1.0" encoding="UTF-8"?>
<svg id="Layer_1" data-name="Layer 1" xmlns="http://www.w3.org/2000/svg" version="1.1" xmlns:xlink="http://www.w3.org/1999/xlink" viewBox="0 0 65 65">
  <defs>
    <style>
      .cls-1 {
        fill-rule: evenodd;
      }

      .cls-1, .cls-2, .cls-3, .cls-4, .cls-5, .cls-6, .cls-7, .cls-8, .cls-9 {
        stroke-width: 0px;
      }

      .cls-1, .cls-7 {
        fill: #fff;
      }

      .cls-2 {
        fill: #4285f4;
      }

      .cls-3 {
        fill: url(#linear-gradient);
      }

      .cls-10 {
        mask: url(#mask-3);
      }

      .cls-4 {
        fill-opacity: .1;
      }

      .cls-4, .cls-5 {
        fill: #1a237e;
      }

      .cls-11 {
        mask: url(#mask-5);
      }

      .cls-5, .cls-7 {
        fill-opacity: .2;
      }

      .cls-6 {
        fill: #a1c2fa;
      }

      .cls-8 {
        fill: url(#radial-gradient);
      }

      .cls-12 {
        mask: url(#mask-2-2);
      }

      .cls-9 {
        fill: #f1f1f1;
      }

      .cls-13 {
        mask: url(#mask-6);
      }

      .cls-14 {
        mask: url(#mask-4-2);
      }

      .cls-15 {
        mask: url(#mask-1);
      }

      .cls-16 {
        mask: url(#mask);
      }
    </style>
    <mask id="mask" x="9" y="0" width="47" height="65" maskUnits="userSpaceOnUse">
      <g id="mask-2">
        <path id="path-1" class="cls-1" d="M38.4,0H13.4c-2.4,0-4.4,2-4.4,4.4v56.1c0,2.4,2,4.4,4.4,4.4h38.2c2.4,0,4.4-2,4.4-4.4V17.7L38.4,0Z"/>
      </g>
    </mask>
    <mask id="mask-1" x="9" y="0" width="47" height="65" maskUnits="userSpaceOnUse">
      <g id="mask-4">
        <path id="path-3" class="cls-1" d="M38.4,0H13.4c-2.4,0-4.4,2-4.4,4.4v56.1c0,2.4,2,4.4,4.4,4.4h38.2c2.4,0,4.4-2,4.4-4.4V17.7L38.4,0Z"/>
      </g>
    </mask>
    <linearGradient id="linear-gradient" x1="-869.2" y1="542.1" x2="-869.2" y2="541.1" gradientTransform="translate(14247.3 8922.3) scale(16.3 -16.4)" gradientUnits="userSpaceOnUse">
      <stop offset="0" stop-color="#1a237e" stop-opacity=".2"/>
      <stop offset="1" stop-color="#1a237e" stop-opacity="0"/>
    </linearGradient>
    <mask id="mask-2-2" data-name="mask-2" x="9" y="0" width="47" height="65" maskUnits="userSpaceOnUse">
      <g id="mask-7">
        <path id="path-6" class="cls-1" d="M38.4,0H13.4c-2.4,0-4.4,2-4.4,4.4v56.1c0,2.4,2,4.4,4.4,4.4h38.2c2.4,0,4.4-2,4.4-4.4V17.7L38.4,0Z"/>
      </g>
    </mask>
    <mask id="mask-3" x="9" y="0" width="47" height="65" maskUnits="userSpaceOnUse">
      <g id="mask-9">
        <path id="path-8" class="cls-1" d="M38.4,0H13.4c-2.4,0-4.4,2-4.4,4.4v56.1c0,2.4,2,4.4,4.4,4.4h38.2c2.4,0,4.4-2,4.4-4.4V17.7L38.4,0Z"/>
      </g>
    </mask>
    <mask id="mask-4-2" data-name="mask-4" x="9" y="0" width="47" height="65" maskUnits="userSpaceOnUse">
      <g id="mask-11">
        <path id="path-10" class="cls-1" d="M38.4,0H13.4c-2.4,0-4.4,2-4.4,4.4v56.1c0,2.4,2,4.4,4.4,4.4h38.2c2.4,0,4.4-2,4.4-4.4V17.7L38.4,0Z"/>
      </g>
    </mask>
    <mask id="mask-5" x="9" y="0" width="47" height="65" maskUnits="userSpaceOnUse">
      <g id="mask-13">
        <path id="path-12" class="cls-1" d="M38.4,0H13.4c-2.4,0-4.4,2-4.4,4.4v56.1c0,2.4,2,4.4,4.4,4.4h38.2c2.4,0,4.4-2,4.4-4.4V17.7L38.4,0Z"/>
      </g>
    </mask>
    <mask id="mask-6" x="9" y="0" width="47" height="65" maskUnits="userSpaceOnUse">
      <g id="mask-15">
        <path id="path-14" class="cls-1" d="M38.4,0H13.4c-2.4,0-4.4,2-4.4,4.4v56.1c0,2.4,2,4.4,4.4,4.4h38.2c2.4,0,4.4-2,4.4-4.4V17.7L38.4,0Z"/>
      </g>
    </mask>
    <radialGradient id="radial-gradient" cx="-907.1" cy="562.2" fx="-907.1" fy="562.2" r="1.6" gradientTransform="translate(42642 26424.5) scale(47 -47)" gradientUnits="userSpaceOnUse">
      <stop offset="0" stop-color="#fff" stop-opacity=".1"/>
      <stop offset="1" stop-color="#fff" stop-opacity="0"/>
    </radialGradient>
  </defs>
  <g id="Page-1">
    <g id="Consumer-Apps-Docs-Large-VD-R8">
      <g id="Hero">
        <g id="Personal">
          <g id="Docs-icon">
            <g id="Group">
              <g id="Clipped">
                <g class="cls-16">
                  <path id="Path" class="cls-2" d="M38.4,0H13.4c-2.4,0-4.4,2-4.4,4.4v56.1c0,2.4,2,4.4,4.4,4.4h38.2c2.4,0,4.4-2,4.4-4.4V17.7l-10.3-7.4L38.4,0Z"/>
                </g>
              </g>
              <g id="Clipped-2" data-name="Clipped">
                <g class="cls-15">
                  <polygon id="Path-2" data-name="Path" class="cls-3" points="39.7 16.4 56 32.9 56 17.7 39.7 16.4"/>
                </g>
              </g>
              <g id="Clipped-3" data-name="Clipped">
                <g class="cls-12">
                  <path id="Shape" class="cls-9" d="M20.8,47.3h23.5v-3h-23.5v3ZM20.8,53.2h17.6v-3h-17.6v3ZM20.8,32.5v3h23.5v-3h-23.5ZM20.8,41.4h23.5v-3h-23.5v3Z"/>
                </g>
              </g>
              <g id="Clipped-4" data-name="Clipped">
                <g class="cls-10">
                  <g id="Group-2" data-name="Group">
                    <path id="Path-3" data-name="Path" class="cls-6" d="M38.4,0v13.3c0,2.4,2,4.4,4.4,4.4h13.2L38.4,0Z"/>
                  </g>
                </g>
              </g>
              <g id="Clipped-5" data-name="Clipped">
                <g class="cls-14">
                  <path id="Path-4" data-name="Path" class="cls-7" d="M13.4,0c-2.4,0-4.4,2-4.4,4.4v.4c0-2.4,2-4.4,4.4-4.4h25v-.4H13.4Z"/>
                </g>
              </g>
              <g id="Clipped-6" data-name="Clipped">
                <g class="cls-11">
                  <path id="Path-5" data-name="Path" class="cls-5" d="M51.6,64.6H13.4c-2.4,0-4.4-2-4.4-4.4v.4c0,2.4,2,4.4,4.4,4.4h38.2c2.4,0,4.4-2,4.4-4.4v-.4c0,2.4-2,4.4-4.4,4.4Z"/>
                </g>
              </g>
              <g id="Clipped-7" data-name="Clipped">
                <g class="cls-13">
                  <path id="Path-6" data-name="Path" class="cls-4" d="M42.8,17.7c-2.4,0-4.4-2-4.4-4.4v.4c0,2.4,2,4.4,4.4,4.4h13.2v-.4h-13.2Z"/>
                </g>
              </g>
            </g>
            <path id="Path-7" data-name="Path" class="cls-8" d="M38.4,0H13.4c-2.4,0-4.4,2-4.4,4.4v56.1c0,2.4,2,4.4,4.4,4.4h38.2c2.4,0,4.4-2,4.4-4.4V17.7L38.4,0Z"/>
          </g>
        </g>
      </g>
    </g>
  </g>
</svg>