<?xml version="1.0" encoding="UTF-8"?>
<svg id="Layer_1" data-name="Layer 1" xmlns="http://www.w3.org/2000/svg" version="1.1" xmlns:xlink="http://www.w3.org/1999/xlink" viewBox="0 0 1000 1000">
  <defs>
    <style>
      .cls-1 {
        fill-rule: evenodd;
      }

      .cls-1, .cls-2, .cls-3, .cls-4 {
        stroke-width: 0px;
      }

      .cls-1, .cls-3, .cls-4 {
        fill: #fff;
      }

      .cls-2 {
        fill: url(#linear-gradient);
      }

      .cls-3, .cls-5 {
        display: none;
      }
    </style>
    <linearGradient id="linear-gradient" x1="-87.2" y1="173.3" x2="1004.9" y2="784.6" gradientTransform="translate(0 1002) scale(1 -1)" gradientUnits="userSpaceOnUse">
      <stop offset="0" stop-color="#e50093"/>
      <stop offset=".8" stop-color="#f73400"/>
      <stop offset="1" stop-color="#ed8000"/>
    </linearGradient>
  </defs>
  <rect class="cls-2" width="1000" height="1000" rx="222.2" ry="222.2"/>
  <path class="cls-3" d="M227.4,198.6h167.3v738.1h-167.3V198.6Z"/>
  <g class="cls-5">
    <path class="cls-4" d="M935.7,498.6l-83.6,144.9L212.8,274.4l83.6-144.9,639.2,369.1Z"/>
  </g>
  <g class="cls-5">
    <path class="cls-4" d="M746.6,413.1l83.6,144.9L191,927.1l-83.6-144.9,639.2-369.1Z"/>
  </g>
  <g id="b">
    <path class="cls-1" d="M780.4,512.8c9.7-5.6,9.7-19.6,0-25.2L313.5,218c-9.7-5.6-21.8,1.4-21.8,12.6v539.2c0,11.2,12.1,18.2,21.8,12.6l467-269.6ZM598,500.8c1.7-1,1.7-3.4,0-4.4l-202.3-116.8c-1.7-1-3.8.2-3.8,2.2v233.6c0,2,2.1,3.2,3.8,2.2l202.3-116.8Z"/>
  </g>
</svg>