<?xml version="1.0" encoding="UTF-8"?>
<svg id="Layer_1" data-name="Layer 1" xmlns="http://www.w3.org/2000/svg" version="1.1" viewBox="0 0 397 397">
  <defs>
    <style>
      .cls-1 {
        fill: #e44d26;
      }

      .cls-1, .cls-2, .cls-3, .cls-4 {
        stroke-width: 0px;
      }

      .cls-2 {
        fill: #ebebeb;
      }

      .cls-3 {
        fill: #f16529;
      }

      .cls-4 {
        fill: #fff;
      }
    </style>
  </defs>
  <path class="cls-1" d="M339.1,78l-25.6,287-115.2,32-114.8-31.9L57.9,78h281.3Z"/>
  <path class="cls-3" d="M198.5,372.5l93-25.8,21.9-245.2h-115v271h0Z"/>
  <path class="cls-2" d="M148.7,171.8h49.8v-35.2h-88.3l.9,9.5,8.6,97h78.8v-35.2h-46.6l-3.2-36h0Z"/>
  <path class="cls-2" d="M156.6,260.7h-35.4l5,55.2,72.1,20.1h.1v-36.7h-.1l-39.2-10.6-2.5-28.1h.1Z"/>
  <path class="cls-1" d="M84.1,0h17.9v17.6h16.3V0h17.9v53.6h-17.9v-18h-16.3v18h-17.9V0h0Z"/>
  <path class="cls-1" d="M159.7,17.7h-15.8V0h49.4v17.7h-15.8v35.8h-17.9V17.7h0Z"/>
  <path class="cls-1" d="M201.3,0h18.6l11.5,18.8L242.8,0h18.6v53.6h-17.9v-26.6l-12.3,19.1h-.3l-12.3-19.1v26.6h-17.5V0h.2Z"/>
  <path class="cls-1" d="M270.4,0h17.9v35.8h25.1v17.7h-43.1V0h.1Z"/>
  <path class="cls-4" d="M198.4,243.1h43.3l-4.1,45.6-39.2,10.6v36.6l72.2-19.9.6-6,8.3-92.7.9-9.5h-81.8v35.2h-.1Z"/>
  <path class="cls-4" d="M198.4,171.8h85l.7-7.9,1.7-17.9.9-9.5h-88.2v35.2h0Z"/>
</svg>