<?xml version="1.0" encoding="UTF-8"?>
<svg id="Layer_1" data-name="Layer 1" xmlns="http://www.w3.org/2000/svg" version="1.1" viewBox="0 0 700 700">
  <defs>
    <style>
      .cls-1 {
        fill: #131b28;
      }

      .cls-1, .cls-2, .cls-3, .cls-4 {
        stroke-width: 0px;
      }

      .cls-2 {
        fill: #0c96c6;
      }

      .cls-3 {
        fill: #0769ad;
      }

      .cls-4 {
        fill: #fff;
      }
    </style>
  </defs>
  <circle class="cls-3" cx="350" cy="350" r="350"/>
  <path class="cls-2" d="M516.4,285.5c31.4,0,60.2-10.5,82.4-27.9-23.1,30.4-61.4,50.3-104.7,50.3-70.5,0-127.7-52.8-127.7-117.9s17.6-68.4,45.3-90.1c-14.5,19.1-23.1,42.5-23.1,67.6,0,65.1,57.2,117.9,127.7,117.9Z"/>
  <path class="cls-2" d="M597.7,366.5c-33.9,26.6-77.7,42.6-125.6,42.6-107.3,0-194.3-80.5-194.3-179.7s13.1-74.2,35.4-103.4c-42,33-68.7,82.1-68.7,137.1,0,99.2,87,179.7,194.3,179.7s123.8-30.1,159-76.3Z"/>
  <path class="cls-2" d="M600,469.3c-48.3,46.1-115.2,74.6-189.1,74.6-147.2,0-266.5-113.1-266.5-252.7s12-85.8,33-122c-47.9,45.7-77.5,108.6-77.5,178.1,0,139.6,119.3,252.7,266.5,252.7s188.1-52.8,233.5-130.7Z"/>
  <path class="cls-1" d="M211.5,346.3h0s-5.3,19-5.3,19l5.3-19h0Z"/>
  <path class="cls-1" d="M239.1,387.4h-5.9s5.9,0,5.9,0Z"/>
  <path class="cls-1" d="M237.5,415.7h0-35.3c0,.1,35.3,0,35.3,0h0Z"/>
  <path class="cls-1" d="M244.9,387.5h-5.9s5.9,0,5.9,0Z"/>
  <path class="cls-1" d="M240.6,413.3l6.2-23.5-6.2,23.5h0Z"/>
  <path class="cls-1" d="M370.7,305.3l-11.5,53.9s11.5-53.9,11.5-53.9Z"/>
  <path class="cls-1" d="M341.2,305.3l-8.7,40.2,8.7-40.3h0Z"/>
  <path class="cls-4" d="M368.7,302.9h-24.5c-1.4,0-2.7,1.1-3,2.4l-8.7,40.3-8.7,40.3c-.3,1.3-1.6,2.4-3,2.4h-17.3c-17.2,0-15.2-11.9-11.7-28.1,0-.2,0-.3.1-.5l.4-2c0-.1,0-.3,0-.4l.8-4.2.8-4.5c.3-1.3.6-3.3.9-4.6l4-19.3,4-19.3c.3-1.3-.6-2.4-2-2.4h-25.2c-1.4,0-2.7,1.1-3,2.4l-5.4,25.7-5.4,25.7s0,0,0,0l-.5,2.4c-6.2,28.4-4.6,55.6,29.3,56.4.6,0,1,0,1,0h53.1c1.4,0,2.7-1.1,3-2.4l11.5-53.9,11.5-53.9c.3-1.3-.6-2.4-2-2.4h0Z"/>
  <path class="cls-1" d="M466.5,388.5c1.4,0,2.3,1.1,2,2.4l-2.4,11.6"/>
  <path class="cls-1" d="M463.7,414.2l2.4-11.6-2.4,11.6s0,0,0,0h0Z"/>
  <path class="cls-1" d="M460.7,416.6s0,0,0,0c-7.2,0-28.9.2-45.2.2,19.8,0,45.2-.2,45.2-.2h0Z"/>
  <path class="cls-1" d="M400.9,373.5c0-1.3,1.4-3.5,2.8-3.5h-3.1c-1.4,13.8.3,3.5.3,3.5h0Z"/>
  <path class="cls-1" d="M417.8,416.8c-.2,0-.3,0-.5,0,.2,0,.3,0,.5,0Z"/>
  <path class="cls-1" d="M466.5,388.5c1.4,0,2.3,1.1,2,2.4l-2.4,11.6-.4,1.9"/>
  <path class="cls-1" d="M429.4,416.8h0,0Z"/>
  <path class="cls-1" d="M423.4,416.8h-.3.3Z"/>
  <path class="cls-1" d="M421.5,416.8c-.2,0-.4,0-.6,0,.2,0,.4,0,.6,0Z"/>
  <path class="cls-1" d="M419.7,416.8h-.5.5Z"/>
  <path class="cls-1" d="M423,416.8c-.5,0-1,0-1.5,0,.5,0,1,0,1.5,0Z"/>
  <path class="cls-1" d="M429.3,416.8c-2,0-4,0-5.9,0,2,0,3.9,0,5.9,0Z"/>
  <path class="cls-1" d="M460.7,416.6h0c-5.3,0-18.3.1-31.4.2,13,0,26.1-.1,31.4-.2Z"/>
  <path class="cls-1" d="M463.7,414.2l2-9.7-2,9.8s0,0,0,0h0Z"/>
  <path class="cls-1" d="M421,416.8h-1.3,1.3Z"/>
  <path class="cls-1" d="M417.3,416.8h-1.7,1.7Z"/>
  <path class="cls-1" d="M419.2,416.8h-1.4,1.4Z"/>
  <path class="cls-1" d="M60.7,373.8l3.8-16.9-4.4,19.3-4.2,19.6,3.7-17.2c.3-1.3.8-3.5,1.1-4.8h0Z"/>
  <path class="cls-4" d="M106.2,302.6h-26.9c-1.4,0-2.7,1.1-3,2.4l-2.6,11.3-2.6,11.3c-.3,1.3.6,2.4,1.9,2.4h27.1c1.4,0,2.7-1.1,3-2.4l2.5-11.3,2.5-11.3h0c.3-1.3-.6-2.4-1.9-2.4h0Z"/>
  <path class="cls-1" d="M100.4,340h0s-7.9,36.5-7.9,36.5l7.9-36.5Z"/>
  <path class="cls-1" d="M22.2,461s13.6.2,22.2.2c-6.6,0-17.4-.1-22.2-.2,0,0,0,0,0,0h0Z"/>
  <path class="cls-1" d="M68.3,340l-3.8,16.9s3.8-16.9,3.8-16.9Z"/>
  <path class="cls-4" d="M98.4,337.6h-27.1c-1.4,0-2.7,1.1-3,2.4l-3.8,16.9-3.8,16.9c-.3,1.3-.8,3.5-1.1,4.8l-3.7,17.2-3.7,17.2c-.3,1.3-.9,3.5-1.3,4.8,0,0-5.1,15.1-13.6,14.9-.4,0-.7,0-1.1,0-4.1,0-7.4-.1-7.4-.1h0c-1.4,0-2.7,1-3,2.4l-2.8,11.8-2.8,11.8c-.3,1.3.5,2.4,1.9,2.4,4.8,0,15.7.2,22.2.2,21.3,0,32.5-11.8,39.7-45.7l8.4-38.9,7.9-36.5c.3-1.3-.6-2.4-2-2.4h0Z"/>
  <path class="cls-1" d="M483.8,415.4c-1.4,0-2.2-1.1-2-2.4l20.4-95.6"/>
  <path class="cls-1" d="M512.1,413l8.3-40.8-8.3,40.8Z"/>
  <path class="cls-1" d="M482.1,414.2c-.2-.7,0-2.3.2-3.6l9.7-45.4-10.2,47.8c-.3,1.3.6,2.4,2,2.4h2.5c-1.4,0-4-.5-4.1-1.2h0Z"/>
  <path class="cls-1" d="M510.5,414.9c-.7.3-2.5.5-3.8.5h2.5c1.4,0,2.7-1.1,3-2.4l.5-2.4c-.3,1.3-1.4,4-2.1,4.3h0Z"/>
  <path class="cls-1" d="M516.2,392.6l3.6-18s0,0,0,0l-3.6,18h0Z"/>
  <path class="cls-1" d="M596.8,323.8l1.1,4.6c.3,1.3-.5,2.4-1.9,2.4"/>
  <path class="cls-1" d="M512.6,410.6l3.6-18-3.6,18Z"/>
  <path class="cls-1" d="M595.6,319.1l1.1,4.8-1.1-4.8Z"/>
  <path class="cls-1" d="M519.9,374.6c.3-1.3.7-3.5,1-4.8l3.9-18.2-4.4,20.6-.5,2.4h0Z"/>
  <path class="cls-1" d="M502.5,315.9c-.3,1.3-.6,2.9-.8,4l-9.7,45.4,10.2-47.8.3-1.6h0Z"/>
  <path class="cls-4" d="M597.9,328.5l-1.1-4.6-1.1-4.8-.6-2.4c-2.2-8.6-8.7-13.5-22.7-13.5h-21.9s-20.1,0-20.1,0h-22.7c-1.4,0-2.7,1.1-3,2.4h0l-1,4.7-1.2,5.6-.3,1.6-10.2,47.8-9.7,45.4c-.3,1.3-.4,3-.2,3.6.2.7,2.8,1.2,4.1,1.2h20.4c1.4,0,3.1-.2,3.8-.5.7-.3,1.8-3,2.1-4.3l3.6-18,3.6-18s0,0,0,0l.5-2.4,4.4-20.6,3.9-18.2c.3-1.3,1.6-2.4,3-2.4h64.3c1.4,0,2.2-1.1,1.9-2.4h0Z"/>
  <path class="cls-4" d="M680.7,286.5c-1.4,0-3.6,0-5,0h-20.6c-1.4,0-3.1.9-3.9,2l-45.5,66.7c-.8,1.1-1.6,1-1.9-.4l-3.3-14.7c-.3-1.3-1.7-2.4-3-2.4h-29.3c-1.4,0-2.2,1.1-1.8,2.4l13.1,45.9c.4,1.3.4,3.5,0,4.8l-5.7,22.2c-.3,1.3.5,2.4,1.9,2.4h28.9c1.4,0,2.8-1.1,3.1-2.4l5.7-22.2c.3-1.3,1.3-3.3,2.1-4.4l73.9-98.1c.8-1.1.4-2-1-2h-7.8c0,0,0,0,0,0Z"/>
  <path class="cls-4" d="M448.2,344h0c-.2,1.4-1.5,2.5-2.9,2.5h-37.1c-1.3,0-1.9-.9-1.7-1.9,0,0,0,0,0,0,0,0,0,0,0,0,0,0,0,0,0-.1,0,0,0-.3.2-.6,3.5-9.4,10.8-15.6,24.3-15.6s18.3,7.5,17.2,15.8h0ZM437.3,301.2c-47.6,0-58.9,28.9-65.2,58.1-6.3,29.7-5.8,57.5,43.5,57.5h1.7c.2,0,.3,0,.5,0h3.2c.2,0,.4,0,.6,0,.5,0,1,0,1.5,0h.3c2,0,3.9,0,5.9,0h0c13,0,26.1-.1,31.4-.2,1.4,0,2.7-1.1,3-2.4l2-9.8.4-1.9,2.4-11.6c.3-1.3-.6-2.4-2-2.4h-44.3c-17.6,0-22.9-4.7-20.9-18.4h70.8,0s0,0,0,0c1.1,0,2.2-.8,2.6-1.8,0-.2.1-.4.2-.6h0c10.5-39.7,7.5-66.4-37.5-66.4h0Z"/>
  <path class="cls-4" d="M212.2,343.9l-.7,2.4s0,0,0,0l-5.3,19-5.3,18.9c-.4,1.3-1.8,2.4-3.1,2.4h-28.3c-21.5,0-26.7-16.8-21.5-41.6,5.2-25.3,15.5-41.1,36.6-42.7,28.9-2.2,34.7,18.1,27.7,41.6h0ZM231.6,385.1s13.3-32.4,16.4-51.1c4.1-25.1-8.4-61.4-56.8-61.4s-69.1,34.7-77.1,72.4c-8,38,2.5,71.3,50.4,71h37.8c0-.1,35.3-.3,35.3-.3,1.4,0,2.8-1.1,3.1-2.4l6.2-23.5c.3-1.3-.5-2.4-1.8-2.4h-5.9s-5.9,0-5.9,0c-1.2,0-1.8-.8-1.7-1.7,0-.2,0-.4.1-.6h0Z"/>
  <path class="cls-1" d="M470.1,363.4c0,.9-.7,1.6-1.6,1.6s-1.6-.7-1.6-1.6.7-1.6,1.6-1.6,1.6.7,1.6,1.6Z"/>
</svg>