<?xml version="1.0" encoding="UTF-8"?>
<svg id="svg4446" xmlns="http://www.w3.org/2000/svg" version="1.1" xmlns:cc="http://creativecommons.org/ns#" xmlns:dc="http://purl.org/dc/elements/1.1/" xmlns:inkscape="http://www.inkscape.org/namespaces/inkscape" xmlns:rdf="http://www.w3.org/1999/02/22-rdf-syntax-ns#" xmlns:sodipodi="http://sodipodi.sourceforge.net/DTD/sodipodi-0.dtd" xmlns:svg="http://www.w3.org/2000/svg" viewBox="0 0 160.5 160.5">
  <defs>
    <style>
      .cls-1 {
        fill: #527eb2;
      }

      .cls-1, .cls-2, .cls-3 {
        stroke-width: 0px;
      }

      .cls-2 {
        fill: #f38577;
      }

      .cls-3 {
        fill: #83b9f5;
      }
    </style>
  </defs>
  <sodipodi:namedview id="base" bordercolor="#666666" borderopacity="1.0" inkscape:current-layer="g5995-0-6" inkscape:cx="15.792671" inkscape:cy="54.203102" inkscape:document-rotation="0" inkscape:document-units="px" inkscape:guide-bbox="true" inkscape:pageopacity="0.0" inkscape:pageshadow="2" inkscape:window-height="996" inkscape:window-maximized="0" inkscape:window-width="1600" inkscape:window-x="0" inkscape:window-y="23" inkscape:zoom="1.4" pagecolor="#ffffff" showborder="true" showgrid="false" showguides="true" units="px"/>
  <g id="layer1" inkscape:groupmode="layer" inkscape:label="Camada 1">
    <g id="g5995-0-6">
      <g id="g5997-6-2">
        <path id="path5999-1-9" class="cls-3" d="M59.4,37.7v6.7h9.2v-6.7h-9.2Z" inkscape:connector-curvature="0"/>
        <path id="path6001-5-1" class="cls-3" d="M52.2,48.5v6.7h16.5v-6.7h-16.5Z" inkscape:connector-curvature="0"/>
        <path id="path6003-54-2" class="cls-3" d="M32.8,59.3v6.7h35.8v-6.7h-35.8Z" inkscape:connector-curvature="0"/>
        <path id="path6005-7-7" class="cls-3" d="M13,70v6.7h55.6v-6.7H13Z" inkscape:connector-curvature="0"/>
        <path id="path6007-6-09" class="cls-3" d="M0,80.9v6.7h68.7v-6.7H0Z" inkscape:connector-curvature="0"/>
        <path id="path6009-5-3" class="cls-3" d="M21.7,91.6v6.7h46.9v-6.7H21.7Z" inkscape:connector-curvature="0"/>
        <path id="path6011-6-6" class="cls-3" d="M40.8,102.4v6.7h27.9v-6.7h-27.9Z" inkscape:connector-curvature="0"/>
        <path id="path6013-9-0" class="cls-3" d="M33.3,113.1v6.7h35.4v-6.7h-35.4Z" inkscape:connector-curvature="0"/>
        <path id="path6015-3-6" class="cls-3" d="M51.5,123.4v6.7h17.1v-6.7h-17.1Z" inkscape:connector-curvature="0"/>
      </g>
      <g id="g6017-7-2">
        <path id="path6019-4-61" class="cls-2" d="M96.7,20.2h-29.1l14.4,22.2,14.7-22.2Z" inkscape:connector-curvature="0" sodipodi:nodetypes="cccc"/>
        <path id="path6021-5-8" class="cls-2" d="M83.8,24.2v116.3h-3.8V24.2h3.8Z" inkscape:connector-curvature="0"/>
      </g>
      <path id="path6023-2-7" class="cls-1" d="M97.6,37.7c-1.3,0-2.5,1.1-2.5,2.4v87.8c0,2,2.2,3.1,3.8,2l60.5-43.9c1.3-1,1.3-2.9,0-3.9l-60.5-43.9c-.4-.4-.8-.5-1.3-.5h0Z" inkscape:connector-curvature="0" sodipodi:nodetypes="cccccccc"/>
    </g>
  </g>
</svg>