<?xml version="1.0" encoding="UTF-8"?>
<svg id="Layer_1" data-name="Layer 1" xmlns="http://www.w3.org/2000/svg" version="1.1" xmlns:cc="http://creativecommons.org/ns#" xmlns:dc="http://purl.org/dc/elements/1.1/" xmlns:rdf="http://www.w3.org/1999/02/22-rdf-syntax-ns#" xmlns:xlink="http://www.w3.org/1999/xlink" viewBox="0 0 800 800">
  <defs>
    <style>
      .cls-1 {
        fill: url(#linear-gradient);
      }

      .cls-1, .cls-2, .cls-3, .cls-4, .cls-5, .cls-6, .cls-7, .cls-8, .cls-9 {
        stroke-width: 0px;
      }

      .cls-2 {
        fill: #282828;
      }

      .cls-3 {
        fill: #000;
        fill-opacity: .5;
      }

      .cls-4 {
        fill: url(#linear-gradient-5);
      }

      .cls-5 {
        fill: url(#linear-gradient-2);
      }

      .cls-6 {
        fill: url(#linear-gradient-3);
      }

      .cls-7 {
        fill: #bfbfbf;
      }

      .cls-8 {
        fill: #fff;
      }

      .cls-9 {
        fill: url(#linear-gradient-4);
      }
    </style>
    <linearGradient id="linear-gradient" x1="-1818.2" y1="833.2" x2="-1218.3" y2="833.2" gradientTransform="translate(-1244.7 412.5) rotate(-150)" gradientUnits="userSpaceOnUse">
      <stop offset="0" stop-color="#ff0"/>
      <stop offset="1" stop-color="#ff0" stop-opacity="0"/>
    </linearGradient>
    <linearGradient id="linear-gradient-2" x1="-207.7" y1="1120.7" x2="392.1" y2="1120.7" gradientTransform="translate(-327 -474.4) rotate(-30)" gradientUnits="userSpaceOnUse">
      <stop offset="0" stop-color="aqua"/>
      <stop offset="1" stop-color="aqua" stop-opacity="0"/>
    </linearGradient>
    <linearGradient id="linear-gradient-3" x1="-763.9" y1="-417.9" x2="-164" y2="-417.9" gradientTransform="translate(-17.9 763.9) rotate(90)" gradientUnits="userSpaceOnUse">
      <stop offset="0" stop-color="#f0f"/>
      <stop offset="1" stop-color="#f0f" stop-opacity="0"/>
    </linearGradient>
    <linearGradient id="linear-gradient-4" x1="389.6" y1="172.3" x2="506" y2="288.6" gradientTransform="translate(-1376.1 -337) rotate(-5.9) scale(3.5)" gradientUnits="userSpaceOnUse">
      <stop offset="0" stop-color="#343434"/>
      <stop offset="1" stop-color="#4d4d4d"/>
    </linearGradient>
    <linearGradient id="linear-gradient-5" x1="347.2" y1="498.9" x2="345" y2="380.2" gradientTransform="translate(-1173.2 -591.7) rotate(89.4) scale(3.5 -3.5)" gradientUnits="userSpaceOnUse">
      <stop offset="0" stop-color="#5596ea"/>
      <stop offset="1" stop-color="#5596ea" stop-opacity="0"/>
    </linearGradient>
  </defs>
  <g>
    <circle class="cls-8" cx="400" cy="400" r="400"/>
    <circle class="cls-1" cx="400" cy="400" r="400"/>
    <circle class="cls-5" cx="400" cy="400" r="400"/>
    <circle class="cls-6" cx="400" cy="400" r="400"/>
  </g>
  <path class="cls-3" d="M196.9,218.9c-19.4,20-36.3,42.5-50.2,66.7,49.2,48.1,102.2,99.3,123.9,122.5,36.5,39.4,112.8,96.9,168.4,90.3,22,15.4,71.7,50,88.3,58.2-.3,7.9,1.3,16,4.1,24,15.6,43.6,73.9,71.9,40,118.5,66.7-40.5,84.5-108,56.2-156.1-17.7-30-43.3-40-64.8-32.7-12.8-14.5-63.8-56.8-82.5-72.3-11.9-53.8-84.5-109.3-130.8-133.4-28.3-14.7-92.9-51.1-152.6-85.7h0Z"/>
  <g>
    <path class="cls-9" d="M480.9,478.8c-53.9,50.3-157.7-29.5-201.5-79.6-45.1-51.6-213.3-225.5-225.6-236.8-12.3-11.3-22-25.2-11.2-39,11.3-13.5,26.9-6.8,40.6,2.9,13.5,9.7,218.5,138.4,278.2,171.8,58.1,32.5,157.6,117.6,119.5,180.8h0Z"/>
    <path class="cls-4" d="M567.4,528.4c-210.5,187.7-382.6,7.8-409.3-54.5,15.7,108.2,88.7,205.1,198.8,242.3,83.2,28.1,215.9,27.5,275.4-79.7l-65-108h0Z"/>
    <path class="cls-7" d="M566.4,546.1c-17.2,7.9-15.3,13.5-30.6,11.1-10.5-1.7-101.7-70.9-101.7-70.9-4.6-11.1.9-26.3,11.4-38.5,9.7-12.7,23.5-21.3,35.3-19,0,0,86.5,75,90.3,84.9,5.6,14.4-.4,13.8-4.5,32.2h0Z"/>
    <path class="cls-2" d="M571.2,699.1c67.9-38.5,87.8-105.4,60.9-154.4-20.9-38-55.1-45.3-78.8-26.8-23.5,18.3-25.5,40.1-18.5,61.6,14.3,44.1,71.7,74.1,36.4,119.6h0Z"/>
  </g>
</svg>