<?xml version="1.0" encoding="UTF-8"?>
<svg id="Layer_1" data-name="Layer 1" xmlns="http://www.w3.org/2000/svg" version="1.1" xmlns:cc="http://creativecommons.org/ns#" xmlns:dc="http://purl.org/dc/elements/1.1/" xmlns:rdf="http://www.w3.org/1999/02/22-rdf-syntax-ns#" xmlns:xlink="http://www.w3.org/1999/xlink" viewBox="0 0 876.2 800">
  <defs>
    <style>
      .cls-1 {
        fill: url(#linear-gradient);
      }

      .cls-1, .cls-2, .cls-3, .cls-4, .cls-5, .cls-6, .cls-7, .cls-8, .cls-9 {
        stroke-width: 0px;
      }

      .cls-2 {
        fill: #282828;
      }

      .cls-3 {
        fill: url(#linear-gradient-5);
      }

      .cls-4 {
        fill: url(#linear-gradient-2);
      }

      .cls-5 {
        fill: url(#linear-gradient-3);
      }

      .cls-6 {
        fill: #000;
        fill-opacity: .5;
      }

      .cls-7 {
        fill: #bfbfbf;
      }

      .cls-8 {
        fill: #fff;
      }

      .cls-9 {
        fill: url(#linear-gradient-4);
      }
    </style>
    <linearGradient id="linear-gradient" x1="-771.4" y1="228.9" x2="-171.5" y2="228.9" gradientTransform="translate(269.1 16.1) rotate(-150) scale(1 -1)" gradientUnits="userSpaceOnUse">
      <stop offset="0" stop-color="#ff0"/>
      <stop offset="1" stop-color="#ff0" stop-opacity="0"/>
    </linearGradient>
    <linearGradient id="linear-gradient-2" x1="2.9" y1="182.1" x2="602.7" y2="182.1" gradientTransform="translate(218.4 759.1) rotate(-30) scale(1 -1)" gradientUnits="userSpaceOnUse">
      <stop offset="0" stop-color="aqua"/>
      <stop offset="1" stop-color="aqua" stop-opacity="0"/>
    </linearGradient>
    <linearGradient id="linear-gradient-3" x1="-343.8" y1="876" x2="256.1" y2="876" gradientTransform="translate(-399.8 343.8) rotate(90) scale(1 -1)" gradientUnits="userSpaceOnUse">
      <stop offset="0" stop-color="#f0f"/>
      <stop offset="1" stop-color="#f0f" stop-opacity="0"/>
    </linearGradient>
    <linearGradient id="linear-gradient-4" x1="786" y1="857.6" x2="924.3" y2="719.4" gradientTransform="translate(-2424.9 3279.2) rotate(-5.9) scale(3.5 -3.5)" gradientUnits="userSpaceOnUse">
      <stop offset="0" stop-color="#343434"/>
      <stop offset="1" stop-color="#4d4d4d"/>
    </linearGradient>
    <linearGradient id="linear-gradient-5" x1="857.2" y1="582.7" x2="854.5" y2="723.7" gradientTransform="translate(2658.7 -2443.9) rotate(89.4) scale(3.5)" gradientUnits="userSpaceOnUse">
      <stop offset="0" stop-color="#5596ea"/>
      <stop offset="1" stop-color="#5596ea" stop-opacity="0"/>
    </linearGradient>
  </defs>
  <g>
    <circle class="cls-8" cx="476.2" cy="400" r="400"/>
    <circle class="cls-1" cx="476.2" cy="400" r="400"/>
    <circle class="cls-4" cx="476.2" cy="400" r="400"/>
    <circle class="cls-5" cx="476.2" cy="400" r="400"/>
  </g>
  <path class="cls-6" d="M189,122.3c-23.1,23.8-43.1,50.5-59.7,79.3,58.5,57.2,121.5,118,147.2,145.6,43.4,46.8,134,115.2,200.1,107.3,26.1,18.3,85.2,59.4,104.9,69.2-.4,9.4,1.5,19,4.9,28.5,18.5,51.8,87.8,85.5,47.5,140.8,79.3-48.1,100.4-128.3,66.8-185.5-21-35.7-51.5-47.5-77-38.9-15.2-17.2-75.8-67.5-98.1-85.9-14.2-63.9-100.4-129.9-155.4-158.5-33.6-17.5-110.4-60.7-181.3-101.9h0Z"/>
  <g>
    <path class="cls-9" d="M526.4,431.1c-64.1,59.8-187.4-35.1-239.4-94.6C233.4,275.2,33.5,68.5,18.9,55.1,4.3,41.7-7.3,25.2,5.6,8.7,19-7.3,37.6.6,53.8,12.2c16.1,11.5,259.6,164.5,330.6,204.2,69,38.6,187.3,139.7,142,214.8Z"/>
    <path class="cls-3" d="M629.2,490.1c-250.1,223.1-454.7,9.3-486.4-64.8,18.7,128.6,105.4,243.7,236.3,287.9,98.9,33.4,256.6,32.7,327.3-94.7l-77.2-128.4Z"/>
    <path class="cls-7" d="M628.1,511.1c-20.4,9.4-18.2,16.1-36.4,13.2-12.5-2-120.9-84.2-120.9-84.2-5.5-13.2,1.1-31.3,13.5-45.7,11.5-15.1,27.9-25.3,41.9-22.6,0,0,102.8,89.1,107.3,100.9,6.6,17.1-.5,16.4-5.4,38.3h0Z"/>
    <path class="cls-2" d="M633.7,692.9c80.7-45.7,104.3-125.2,72.4-183.5-24.8-45.2-65.5-53.8-93.6-31.9-27.9,21.7-30.3,47.6-22,73.2,17,52.4,85.2,88.1,43.2,142.1Z"/>
  </g>
</svg>