<?xml version="1.0" encoding="UTF-8"?>
<svg id="Layer_1" data-name="Layer 1" xmlns="http://www.w3.org/2000/svg" version="1.1" viewBox="0 0 256.7 302">
  <defs>
    <style>
      .cls-1 {
        fill: #0468ff;
      }

      .cls-1, .cls-2 {
        stroke-width: 0px;
      }

      .cls-2 {
        fill: #fff;
      }
    </style>
  </defs>
  <g id="Layer_2" data-name="Layer 2">
    <path class="cls-2" d="M239.1,240.8c-3-2.2-5.2-5.4-6.4-8.9-1.1-3.6-.8-7.5-2.5-10.9-.9-1.8-2.3-3.2-3.9-4,1.5-5.6-3.1-13.7-7.1-17.1-2.6-2.2-5.6-3-9-3.2-1.2,0-3.6.6-4.4-.4-1.3-1.4-.5-5.8-.3-7.6.8-9,3.4-17.9.2-26.8-2.6-7.2-7.4-14.7-12.7-20.3-5.8-6.1-12.9-8-21.1-7.3-1.3.1-2.6.2-3.9.3,1.6-.6,3.2-1.3,4.7-2.1,4.4-2.4,2.3-9.3-2.5-9.3-.5,0-1.1,0-1.6,0,3.4-2,2.6-6.5-.2-8.5-.5-.4-1-.7-1.5-1,2.4,0,4.8,0,7.1.2,6.4.2,6.4-9.8,0-10-3.7-.1-7.4-.2-11.2-.2,1.3-2.5.4-5.9-1.8-7.1-.2-.7-.5-1.4-1-1.9.4-.8.5-1.7.4-2.8.9-1.9.4-4.3-1.1-5.8,2.7-1.4,4.4-5.2,1.5-8-1.9-1.9-4-3.6-6.2-5.1,2.3-5,2.3-11.9-.4-16.6.2,0,.3-.2.5-.3,7.3-4.6,4.9-13.7-2.1-17-5.6-2.6-12.7-4.2-19.3-3.8-1.7-3.5-3-7.3-4.1-10.7-1.9-6.1-11.6-3.5-9.6,2.7,1.1,3.5,2.4,7.1,3.9,10.6-3.8,2.1-6.7,5.4-8.1,9.4-2.8-2.3-6.5-2.9-9.8-2.1-7.2-3.1-17,.5-16.9,10.2,0,1.9.6,3.9,1.5,5.7-1.9,4-2,8.7,1,12.4.2.3.5.6.7.8.3,1.4.8,2.7,1.6,3.9-1.5,1-2.3,2.8-1.4,5,.2.5.4.9.6,1.3-.5,0-1.1,0-1.6-.1-.2,0-.3,0-.4,0,0,2.6,0,5.1.4,7.7,0,.8,0,1.6-.5,2.2.2,0,.3,0,.5,0,.6,0,1.1,0,1.7.1-1.8.5-2.6,2-2.8,3.7.4.1.9.3,1.3.5,1.7,1,2.8,3.3,2.4,5.3.9.2,1.9.5,2.8.7-1.1.2-2.2.3-3.2.5,0,.1-.1.2-.2.3-1.4,2-2.2,4.2-2.8,6.5-.2,0-.4-.1-.6-.2-5.2-1.8-7.9,5-4.8,8.3,0,0,0,0,0,0-5.5,3.2-11.9,8.4-7.7,14,.8,1.1,1.8,1.9,3.1,2.5-3.6,1-7,2.5-10.1,4.7-12.6,9.3-13.9,25.3-18.2,39.2-2.3,7.6-7,13.9-2.4,21.6,1.2,2,2.7,4.1,4.2,6.1,0,.2,0,.3.1.5-5.3-5.4-14.1-3.8-18.4,2.7-1.8,2.8-2.1,9.1-4.9,10.7-3.6,2.1-9.7-.1-13.7.8-10.3,2.4-11.7,12.5-10.2,21.4.9,5.4,1.3,10.4-.3,15.7-1.5,4.7-5.3,9-4.5,14.2.7,4.8,4.8,6.3,8.9,7.5,6.1,1.7,12.2,3.2,18.4,4.8,11.8,3.1,23.6,6.1,35.4,9.2,5,1.3,10.3,3.2,15.6,2.7,5.1-.5,9.8-3.6,13.1-7.4,5.8-6.7,2.9-16.3.2-24.1,3.4,1.8,7.1,3.1,9.9,3.8,9.6,2,20.3,1,30.2-1.7,11.6-1,22.4-6.3,31.2-14-.5,5.4-.9,10.7-1.4,16.1-.7,8.2-1.9,16.5,5.2,22.2,6.6,5.3,15,7.4,23.3,5.3,8.8-2.2,15.7-8.4,22.2-14.4,6.6-6.2,13.5-11.7,21.9-15.3,6.3-2.7,16.6-3.6,16.9-12.5.3-9.3-8.3-11.1-14.3-15.6h0ZM115.1,67.6c-.3-.5-.8-.9-1.2-1.3.3-.7.5-1.4.7-2.2.5-2.3-.1-4.2-1.3-5.6,1.1.2,2.2,0,3.2-.6,1.6,3,4.3,5,7.5,6.3-3,.7-6,1.8-8.9,3.4ZM147.4,47.8s0,0-.1,0c0,0-.1-.2-.2-.3.1,0,.3,0,.4.2,2.5,1,2.3,1,0,.2h0ZM213.5,208.3c.9,1,1.5,2.4,2,3.6,0-.1.4,1,.7,1.8-.6-.4-1.5-.6-1.6-.7-2.9-1.7-5.7-4.1-8.5-6.4,2.6,0,5.5-.4,7.4,1.6h0ZM207.4,220.5c1.3.8,2.8,1.5,4.4,2-.2.2-.4.4-.6.6-2.5,2.5-5.2,5.9-8.7,7-2.5-.8-5.2-1.2-7.8-1.3-2.4-1.6-4.4-3.9-6-6-.2-.3-.4-.5-.6-.7.9-2.1,1.7-4.4,2.3-6.9.9-1.4,1.9-2.8,3-4.1,1.8.3,3.9,1.3,4.7,1.9,3.3,2.3,6,5.4,9.4,7.5h0ZM196.3,165.4c2.8,8.4-.7,17.5-1,26-.1,2.9.1,5.7,1,8.2-.7-.6-1.5-.9-2.4-1.1,1.3-1.8,1.6-4.2-.6-6.1-1.5-1.3-2.9-2.7-4.3-4.2v-.7c-.2-7.4-1.1-14.8-2.6-22.1.6-1,1-2.2,1.2-3.5.8-4.4.1-9.8-2.3-13.9,4.8,4.4,9.1,11.8,11,17.4h0Z"/>
  </g>
  <g id="Layer_1-2" data-name="Layer 1">
    <path class="cls-1" d="M123.8,73.8c0,1-1,1-1,1h-1c-1,0-1-1-2-2,0,0-1-1-1-2s0-1,1-1l2,1c1,1,2,2,2,3M105.8,63.8c0-5-2-8-5-8,0,0,0,1-1,1v2h3c0,2,1,3,1,5h2M140.8,58.8c2,0,3,2,4,5h2c-1-1-1-2-1-3s0-2-1-3-2-2-3-2c0,0-1,1-2,1,0,1,1,1,1,2M110.8,74.8c-.7,0-1-.3-1-1,0-1,0-2,1-3,2,0,3-1,3-1,1,0,1,1,1,1,0,1-1,2-3,4h-1M99.8,73.8c-4-2-5-5-5-10s0-5,2-7c1-2,3-3,5-3s3,1,5,3c1,3,2,6,2,9v2h1v-1c1,0,1-2,1-6s0-6-2-9-4-5-8-5-6,2-7,5c-2,4-2.4,7-2.4,12s1.4,8,5.4,12c1-1,2-1,3-2M224.8,214.8c1,0,1-.4,1-1.3,0-2.2-1-4.8-4-7.7-3-3-8-4.9-14-5.7-1-.1-2-.1-2-.1-.7-.1-1.3-.2-2-.2-1-.1-3-.3-4-.5,3-9.3,4-17.5,4-24.7s-2-17-6-23-8-9-13-10c-.7.7-1,1.3-1,2,5,2,10,6,13,12,3,7,4,13,4,20s-1,13.9-5,24.5c-4,1.6-8,5.3-11,11.1,0,.9,0,1.4,1,1.4,0,0,1-.9,2-2.6,2-1.7,3-3.4,5-5.1,3-1.7,5-2.6,8-2.6,5,0,10,.7,13,2.1,4,1.3,6,2.7,7,4.3,1,1.5,2,2.9,3,4.2,0,1.3,1,1.9,1,1.9M132.8,69.8c-1-1-1-3-1-5,0-4,0-6,2-9,2-2,4-3,6-3,3,0,5,2,7,4,1,3,2,5,2,8,0,5-2,8-6,9,0,0,1,1,2,1,2,0,3,1,5,2,1-6,2-10,2-15s-1-10-3-13c-3-3-6-4-10-4s-6,1-9,3c-2,3-3,5-3,8,0,5,1,9,3,13,1,0,2,1,3,1M144.8,85.8c-13,9-23,13-31,13s-14-3-20-8c1,2,2,4,3,5l6,6c4,4,9,6,14,6s15-4,25-11l9-6c2-2,4-4,4-7s0-2-1-2c-1-2-6-5-16-8-9-4-16-6-20-6s-8,2-15,6c-6,4-10,8-10,12,0,0,1,1,2,3,6,5,12,8,18,8s18-4,31-14v2c1,0,1,1,1,1M167.8,287.8c4,7.5,11,11.3,19,11.3s4-.3,6-.9c2-.4,4-1.1,5-1.9,1-.7,2-1.4,3-2.2,2-.7,2-1.2,3-1.7l17-14.7c4-3.2,8-6,13-8.4,4-2.4,8-4,10-4.9,3-.8,5-2,7-3.6,1-1.5,2-3.4,2-5.8s-2-5.1-4-6.7-4-2.7-6-3.4-4-2.3-7-5c-2-2.6-4-6.2-5-10.9l-1-5.8c-1-2.7-1-4.7-2-5.8,0-.3,0-.4-1-.4s-3,.9-4,2.6c-2,1.7-4,3.6-6,5.6-1,2-4,3.8-6,5.5-3,1.7-6,2.6-8,2.6-8,0-12-2.2-15-6.5-2-3.2-3-6.9-4-11.1-2-1.7-3-2.6-5-2.6-5,0-7,5.2-7,15.7v31.1c0,.9-1,2.9-1,6-1,3.1-1,6.6-1,10.6l-2,11.1v.2M22.8,282.5c9.3,1.4,20,4.3,32.1,8.7,12.1,4.4,19.5,6.7,22.2,6.7,7,0,12.8-3.1,17.6-9.1,1-1.9,1-4.2,1-6.8,0-9.5-5.7-21.4-17.1-35.9l-6.8-9.1c-1.4-1.9-3.1-4.8-5.3-8.7-2.1-3.9-4-6.9-5.5-9-1.3-2.3-3.4-4.6-6.1-6.9-2.6-2.3-5.6-3.8-8.9-4.6-4.2.8-7.1,2.2-8.5,4.1s-2.2,4-2.4,6.2c-.3,2.1-.9,3.5-1.9,4.2-1,.6-2.7,1.1-5,1.6-.5,0-1.4,0-2.7.1h-2.7c-5.3,0-8.9.6-10.8,1.6-2.5,2.9-3.8,6.2-3.8,9.7s.4,4.3,1.2,8.1c.8,3.7,1.2,6.7,1.2,8.8,0,4.1-1.2,8.2-3.7,12.3-2.5,4.3-3.8,7.5-3.8,9.8,1,3.9,7.6,6.6,19.7,8.2M56.1,191.6c0-6.9,1.8-14.5,5.5-23.5,3.6-9,7.2-15,10.7-19-.2-1-.7-1-1.5-1l-1-1c-2.9,3-6.4,10-10.6,20-4.2,9-6.4,17.3-6.4,23.4s1.1,8.4,3.1,11.8c2.2,3.3,7.5,8.1,15.9,14.2l10.6,6.9c11.3,9.8,17.3,16.6,17.3,20.6s-1,4.2-4,6.5c-2,2.4-4.7,3.6-7,3.6s-.3.2-.3.7,1,2.1,3.1,6c4.2,5.7,13.2,8.5,25.2,8.5,22,0,39-9,52-27,0-5,0-8.1-1-9.4v-3.7c0-6.5,1-11.4,3-14.6s4-4.7,7-4.7,4,.7,6,2.2c1-7.7,1-14.4,1-20.4,0-9.1,0-16.6-2-23.6-1-6-3-11-5-15l-6-9c-2-3-3-6-5-9-1-4-2-7-2-12-3-5-5-10-8-15-2-5-4-10-6-14l-9,7c-10,7-18,10-25,10s-11-1-14-5l-6-5c0,3-1,7-3,11l-6.3,12c-2.8,7-4.3,11-4.6,14-.4,2-.7,4-.9,4l-7.5,15c-8.1,15-12.2,28.9-12.2,40.4s.2,4.7.6,7.1c-4.5-3.1-6.7-7.4-6.7-13M127.7,286.1c-13,0-23,1.8-30,5.2v-.3c-5,6-10.6,9.1-18.4,9.1s-12.6-1.9-23-5.7c-10.5-3.6-19.8-6.4-27.9-8.2-.8-.2-2.6-.6-5.5-1-2.8-.5-5.4-.9-7.7-1.4-2.1-.5-4.5-1.1-7.1-2-2.5-.8-4.5-1.8-6-3.1C.7,277.5,0,276.1,0,274.5s.3-3.3,1-5.1c.6-1.1,1.3-2.2,2-3.2.7-1.1,1.3-2.1,1.7-3.1.6-.9,1-1.8,1.4-2.8.4-.9.8-1.8,1-2.9.2-1,.4-2,.4-3s-.4-4-1.2-9.3c-.8-5.2-1.2-8.5-1.2-9.9,0-4.4,1-7.9,3.2-10.4s4.3-3.8,6.5-3.8h11.5c.9,0,2.3-.5,4.4-1.7.7-1.6,1.3-2.9,1.7-4.1.5-1.2.7-2.1.9-2.5.2-.6.4-1.2.6-1.7.4-.7.9-1.5,1.6-2.3-.8-1-1.2-2.3-1.2-3.9s0-2.1.2-2.7c0-3.6,1.7-8.7,5.3-15.4l3.5-6.3c2.9-5.4,5.1-9.4,6.7-13.4,1.7-4,3.5-10,5.5-18,1.6-7,5.4-14,11.4-21l7.5-9c5.2-6,8.6-11,10.5-15s2.9-9,2.9-13-.5-8-1.6-18c-1-10-1.5-20-1.5-29s.6-12,1.9-17,3.6-10,7-14c3-4,7-8,13-10S119.7,0,127.7,0,133.7,0,136.7,1c3,0,7,1,12,3,4,2,8,4,11,7,4,3,7,8,10,13,2,6,4,12,5,20,1,5,1,10,2,17,0,6,1,10,1,13,1,3,1,7,2,12,1,4,2,8,4,11,2,4,4,8,7,12,3,5,7,10,11,16,9,10,16,21,20,32,5,10,8,23,8,36.9s-1,13.6-3,20.1c2,0,3,.8,4,2.2s2,4.4,3,9.1l1,7.4c1,2.2,2,4.3,5,6.1,2,1.8,4,3.3,7,4.5,2,1,5,2.4,7,4.2,2,2,3,4.1,3,6.3,0,3.4-1,5.9-3,7.7-2,2-4,3.4-7,4.3-2,1-6,3-12,5.8-5,3-10,6.5-15,10.8l-10,8.5c-4,3.9-8,6.7-11,8.4-3,1.8-7,2.7-11,2.7l-7-.8c-8-2.1-13-6.1-16-12.2-16-1.9-29-2.9-37-2.9"/>
  </g>
</svg>