<?xml version="1.0" encoding="UTF-8"?>
<svg id="Layer_1" data-name="Layer 1" xmlns="http://www.w3.org/2000/svg" version="1.1" xmlns:xlink="http://www.w3.org/1999/xlink" viewBox="0 0 31.6 28.9">
  <defs>
    <style>
      .cls-1 {
        opacity: .2;
      }

      .cls-1, .cls-2, .cls-3, .cls-4, .cls-5 {
        mix-blend-mode: multiply;
      }

      .cls-6 {
        fill: url(#linear-gradient);
      }

      .cls-6, .cls-7, .cls-8, .cls-9, .cls-10, .cls-11, .cls-12 {
        stroke-width: 0px;
      }

      .cls-7 {
        fill: #41a5ee;
      }

      .cls-13, .cls-4 {
        isolation: isolate;
      }

      .cls-8 {
        fill: #103f91;
      }

      .cls-9 {
        fill: #185abd;
      }

      .cls-10 {
        fill: #2b7cd3;
      }

      .cls-11 {
        fill: none;
      }

      .cls-14 {
        mix-blend-mode: soft-light;
        opacity: .5;
      }

      .cls-2 {
        opacity: .2;
      }

      .cls-15 {
        clip-path: url(#clippath);
      }

      .cls-12 {
        fill: #fff;
      }

      .cls-3 {
        opacity: .5;
      }

      .cls-5 {
        opacity: .1;
      }
    </style>
    <clipPath id="clippath">
      <rect class="cls-11" x="7.2" width="24.3" height="28.9" rx="1.4" ry="1.4"/>
    </clipPath>
    <linearGradient id="linear-gradient" x1="2.8" y1="25.6" x2="13.4" y2="7.2" gradientTransform="translate(0 30.8) scale(1 -1)" gradientUnits="userSpaceOnUse">
      <stop offset="0" stop-color="#fff" stop-opacity=".5"/>
      <stop offset="1" stop-color="#000" stop-opacity=".7"/>
    </linearGradient>
  </defs>
  <g class="cls-13">
    <g id="Word">
      <g id="_142" data-name=" 142">
        <g id="Ambient-2">
          <g class="cls-1">
            <rect class="cls-12" x="7.2" y="0" width="24.3" height="28.9" rx="1.4" ry="1.4"/>
          </g>
          <g class="cls-5">
            <rect class="cls-12" x="7.2" y="0" width="24.3" height="28.9" rx="1.4" ry="1.4"/>
          </g>
        </g>
        <path class="cls-8" d="M8.6,28.8h21.7c.7,0,1.3-.6,1.3-1.3,0,0,0,0,0,0v-5.9H7.2v5.9c0,.7.6,1.3,1.3,1.3,0,0,0,0,0,0Z"/>
        <path class="cls-7" d="M30.2,0H8.6c-.7,0-1.3.6-1.3,1.3,0,0,0,0,0,0v5.9h24.3V1.4C31.6.6,31,0,30.2,0Z"/>
        <rect class="cls-9" x="7.2" y="14.4" width="24.3" height="7.2"/>
        <rect class="cls-10" x="7.2" y="7.2" width="24.3" height="7.2"/>
        <g class="cls-15">
          <g id="Ambient-3">
            <g class="cls-3">
              <image class="cls-4" width="96" height="95" transform="translate(-3.2 4.6) scale(.2)" xlink:href="Word-1.png"/>
              <rect class="cls-12" y="6.3" width="16.2" height="16.2" rx="1.4" ry="1.4"/>
            </g>
            <g class="cls-2">
              <image class="cls-4" width="74" height="73" transform="translate(-.5 6) scale(.2)" xlink:href="Word-2.png"/>
              <rect class="cls-12" y="6.3" width="16.2" height="16.2" rx="1.4" ry="1.4"/>
            </g>
          </g>
        </g>
        <rect class="cls-9" y="6.3" width="16.2" height="16.2" rx="1.4" ry="1.4"/>
        <g class="cls-14">
          <rect class="cls-6" y="6.3" width="16.2" height="16.2" rx="1.4" ry="1.4"/>
        </g>
        <path class="cls-12" d="M5.5,16.7c0,.2,0,.4,0,.5h0c0-.2,0-.4,0-.5,0-.2,0-.4.1-.5l1.5-6.1h1.8l1.5,6c0,.4.1.8.2,1.1h0c0-.4,0-.7.1-1.1l1.2-6.1h1.7l-2.1,8.8h-1.9l-1.4-5.8c0-.2,0-.4-.1-.6s0-.5,0-.6h0c0,.1,0,.4,0,.6s0,.5-.1.6l-1.3,5.8h-2l-2.1-8.8h1.7l1.3,6.1c0,.2,0,.3,0,.5Z"/>
        <rect class="cls-11" y="-1.8" width="32.5" height="32.5"/>
      </g>
    </g>
    <g id="TrapLine">
      <rect class="cls-11" x="-15.8" y="-17.6" width="64" height="64"/>
    </g>
  </g>
</svg>