<?xml version="1.0" encoding="UTF-8"?>
<svg id="Layer_1" data-name="Layer 1" xmlns="http://www.w3.org/2000/svg" version="1.1" xmlns:xlink="http://www.w3.org/1999/xlink" viewBox="0 0 31.6 28.9">
  <defs>
    <style>
      .cls-1 {
        opacity: .2;
      }

      .cls-1, .cls-2, .cls-3, .cls-4, .cls-5 {
        mix-blend-mode: multiply;
      }

      .cls-6 {
        fill: #ff8f6b;
      }

      .cls-6, .cls-7, .cls-8, .cls-9, .cls-10, .cls-11, .cls-12 {
        stroke-width: 0px;
      }

      .cls-7 {
        fill: url(#linear-gradient);
      }

      .cls-13, .cls-4 {
        isolation: isolate;
      }

      .cls-8 {
        fill: none;
      }

      .cls-9 {
        fill: #ed6c47;
      }

      .cls-14 {
        mix-blend-mode: soft-light;
        opacity: .5;
      }

      .cls-2 {
        opacity: .2;
      }

      .cls-10 {
        fill: #d35230;
      }

      .cls-15 {
        clip-path: url(#clippath);
      }

      .cls-11 {
        fill: #c43e1c;
      }

      .cls-12 {
        fill: #fff;
      }

      .cls-3 {
        opacity: .5;
      }

      .cls-5 {
        opacity: .1;
      }
    </style>
    <clipPath id="clippath">
      <path class="cls-8" d="M30.9,10.1c-.3-.9-.6-1.8-1.1-2.6C27.3,2.9,22.4,0,17.1,0,9.2,0,2.7,6.5,2.7,14.4c0,8,6.5,14.4,14.4,14.4s14.4-6.5,14.4-14.4c0-1.5-.2-2.9-.7-4.3Z"/>
    </clipPath>
    <linearGradient id="linear-gradient" x1="2.8" y1="25.6" x2="13.4" y2="7.2" gradientTransform="translate(0 30.8) scale(1 -1)" gradientUnits="userSpaceOnUse">
      <stop offset="0" stop-color="#fff" stop-opacity=".5"/>
      <stop offset="1" stop-color="#000" stop-opacity=".7"/>
    </linearGradient>
  </defs>
  <g class="cls-13">
    <g id="PowerPoint">
      <g id="_142" data-name=" 142">
        <g id="Directional">
          <g class="cls-1">
            <rect class="cls-12" x="2.7" y="0" width="28.9" height="28.9" rx="14.4" ry="14.4"/>
          </g>
          <g class="cls-5">
            <rect class="cls-12" x="2.7" y="0" width="28.9" height="28.9" rx="14.4" ry="14.4"/>
          </g>
        </g>
        <rect id="Circle" class="cls-10" x="2.7" y="0" width="28.9" height="28.9" rx="14.4" ry="14.4"/>
        <path class="cls-9" d="M17.1,0C9.2,0,2.7,6.5,2.7,14.4h14.4V0Z"/>
        <path class="cls-6" d="M17.1,0c8,0,14.4,6.5,14.4,14.4h-14.4V0Z"/>
        <g class="cls-15">
          <g>
            <g id="Ambient">
              <g class="cls-3">
                <image class="cls-4" width="96" height="95" transform="translate(-3.2 4.6) scale(.2)" xlink:href="PowerPoint-1.png"/>
                <rect class="cls-12" y="6.3" width="16.2" height="16.2" rx="1.4" ry="1.4"/>
              </g>
              <g class="cls-2">
                <image class="cls-4" width="74" height="73" transform="translate(-.5 6) scale(.2)" xlink:href="PowerPoint-2.png"/>
                <rect class="cls-12" y="6.3" width="16.2" height="16.2" rx="1.4" ry="1.4"/>
              </g>
            </g>
            <rect id="Light_Gradient" data-name="Light Gradient" class="cls-8" y="-1.8" width="32.5" height="32.5"/>
            <path id="Light_Circle" data-name="Light Circle" class="cls-8" d="M30.9,10.1c-.3-.9-.6-1.8-1.1-2.6C27.3,2.9,22.4,0,17.1,0h0C9.2,0,2.7,6.5,2.7,14.4h0c0,8,6.5,14.4,14.4,14.4s14.4-6.5,14.4-14.4c0-1.5-.2-2.9-.7-4.3Z"/>
          </g>
        </g>
        <rect class="cls-11" y="6.3" width="16.2" height="16.2" rx="1.4" ry="1.4"/>
        <g class="cls-14">
          <rect class="cls-7" y="6.3" width="16.2" height="16.2" rx="1.4" ry="1.4"/>
        </g>
        <path class="cls-12" d="M8.2,10c.9,0,1.7.2,2.4.7.6.5.9,1.2.8,2,0,1.1-.6,2.1-1.6,2.6-.6.3-1.2.4-1.8.4h-1.7v3.1h-1.7v-8.7h3.5ZM6.4,14.4h1.5c.5,0,.9,0,1.3-.4.3-.3.5-.7.4-1.1,0-1-.6-1.5-1.7-1.5h-1.5v3Z"/>
        <polyline class="cls-8" points="0 30.6 0 -1.8 32.5 -1.8 32.5 30.6"/>
      </g>
    </g>
    <g id="TrapLine">
      <rect class="cls-8" x="-15.8" y="-17.6" width="64" height="64"/>
    </g>
  </g>
</svg>