<?xml version="1.0" encoding="UTF-8"?>
<svg id="Layer_1" data-name="Layer 1" xmlns="http://www.w3.org/2000/svg" version="1.1" xmlns:xlink="http://www.w3.org/1999/xlink" viewBox="0 0 31.6 31.6">
  <defs>
    <style>
      .cls-1 {
        opacity: .2;
      }

      .cls-1, .cls-2, .cls-3 {
        mix-blend-mode: multiply;
      }

      .cls-4 {
        fill: url(#linear-gradient);
      }

      .cls-4, .cls-5, .cls-6, .cls-7, .cls-8, .cls-9, .cls-10 {
        stroke-width: 0px;
      }

      .cls-2 {
        opacity: .1;
      }

      .cls-5 {
        fill: #41a5ee;
      }

      .cls-11 {
        isolation: isolate;
      }

      .cls-6 {
        fill: #103f91;
      }

      .cls-7 {
        fill: #185abd;
      }

      .cls-8 {
        fill: #2b7cd3;
      }

      .cls-9 {
        fill: none;
      }

      .cls-12 {
        mix-blend-mode: soft-light;
      }

      .cls-12, .cls-3 {
        opacity: .5;
      }

      .cls-13 {
        clip-path: url(#clippath);
      }

      .cls-10 {
        fill: #fff;
      }
    </style>
    <clipPath id="clippath">
      <rect class="cls-9" x="7.2" y="1.4" width="24.3" height="28.9" rx="1.4" ry="1.4"/>
    </clipPath>
    <linearGradient id="linear-gradient" x1="2.8" y1="1055.7" x2="13.4" y2="1074.2" gradientTransform="translate(0 -1049.2)" gradientUnits="userSpaceOnUse">
      <stop offset="0" stop-color="#fff" stop-opacity=".5"/>
      <stop offset="1" stop-color="#000" stop-opacity=".7"/>
    </linearGradient>
  </defs>
  <g class="cls-11">
    <g id="Word">
      <g id="_142" data-name=" 142">
        <g id="Ambient-2">
          <g class="cls-1">
            <rect class="cls-10" x="7.2" y="1.4" width="24.3" height="28.9" rx="1.4" ry="1.4"/>
          </g>
          <g class="cls-2">
            <rect class="cls-10" x="7.2" y="1.4" width="24.3" height="28.9" rx="1.4" ry="1.4"/>
          </g>
        </g>
        <path class="cls-6" d="M8.6,30.1h21.7c.7,0,1.3-.6,1.3-1.3h0v-5.9H7.2v5.9c0,.7.6,1.3,1.3,1.3h.1Z"/>
        <path class="cls-5" d="M30.2,1.4H8.6c-.7,0-1.3.6-1.3,1.3h0v5.9h24.3V2.8c0-.8-.6-1.4-1.4-1.4Z"/>
        <rect class="cls-7" x="7.2" y="15.7" width="24.3" height="7.2"/>
        <rect class="cls-8" x="7.2" y="8.6" width="24.3" height="7.2"/>
        <g class="cls-13">
          <g id="Ambient-3">
            <g class="cls-3">
              <rect class="cls-10" y="7.7" width="16.2" height="16.2" rx="1.4" ry="1.4"/>
            </g>
            <g class="cls-1">
              <rect class="cls-10" y="7.7" width="16.2" height="16.2" rx="1.4" ry="1.4"/>
            </g>
          </g>
        </g>
        <rect class="cls-7" y="7.7" width="16.2" height="16.2" rx="1.4" ry="1.4"/>
        <g class="cls-12">
          <rect class="cls-4" y="7.7" width="16.2" height="16.2" rx="1.4" ry="1.4"/>
        </g>
        <path class="cls-10" d="M5.5,18.1v.5h0v-.5c0-.2,0-.4,0-.5l1.5-6.1h1.8l1.5,6c0,.4.1.8.2,1.1h0c0-.4,0-.7.1-1.1l1.2-6.1h1.7l-2.1,8.8h-1.9l-1.4-5.8c0-.2,0-.4-.1-.6s0-.5,0-.6h0v.6c0,.2,0,.5-.1.6l-1.3,5.8h-2l-2.1-8.8h1.7l1.3,6.1v.5h-.1Z"/>
        <rect class="cls-9" y="-.4" width="32.5" height="32.5"/>
      </g>
    </g>
    <g id="TrapLine">
      <rect class="cls-9" x="-15.8" y="-16.3" width="64" height="64"/>
    </g>
  </g>
</svg>