<?xml version="1.0" encoding="UTF-8"?>
<svg id="Layer_1" data-name="Layer 1" xmlns="http://www.w3.org/2000/svg" version="1.1" xmlns:xlink="http://www.w3.org/1999/xlink" viewBox="0 0 31.6 31.6">
  <defs>
    <style>
      .cls-1 {
        opacity: .2;
      }

      .cls-1, .cls-2, .cls-3 {
        mix-blend-mode: multiply;
      }

      .cls-4 {
        fill: #ff8f6b;
      }

      .cls-4, .cls-5, .cls-6, .cls-7, .cls-8, .cls-9, .cls-10 {
        stroke-width: 0px;
      }

      .cls-5 {
        fill: url(#linear-gradient);
      }

      .cls-2 {
        opacity: .1;
      }

      .cls-11 {
        isolation: isolate;
      }

      .cls-6 {
        fill: none;
      }

      .cls-7 {
        fill: #ed6c47;
      }

      .cls-12 {
        mix-blend-mode: soft-light;
      }

      .cls-12, .cls-3 {
        opacity: .5;
      }

      .cls-8 {
        fill: #d35230;
      }

      .cls-13 {
        clip-path: url(#clippath);
      }

      .cls-9 {
        fill: #c43e1c;
      }

      .cls-10 {
        fill: #fff;
      }
    </style>
    <clipPath id="clippath">
      <path class="cls-6" d="M30.9,11.4c-.3-.9-.6-1.8-1.1-2.6-2.5-4.6-7.4-7.5-12.7-7.5C9.2,1.4,2.7,7.9,2.7,15.8s6.5,14.4,14.4,14.4,14.4-6.5,14.4-14.4-.2-2.9-.7-4.3h.1Z"/>
    </clipPath>
    <linearGradient id="linear-gradient" x1="2.8" y1="1055.7" x2="13.4" y2="1074.2" gradientTransform="translate(0 -1049.2)" gradientUnits="userSpaceOnUse">
      <stop offset="0" stop-color="#fff" stop-opacity=".5"/>
      <stop offset="1" stop-color="#000" stop-opacity=".7"/>
    </linearGradient>
  </defs>
  <g class="cls-11">
    <g id="PowerPoint">
      <g id="_142" data-name=" 142">
        <g id="Directional">
          <g class="cls-1">
            <rect class="cls-10" x="2.7" y="1.4" width="28.9" height="28.9" rx="14.4" ry="14.4"/>
          </g>
          <g class="cls-2">
            <rect class="cls-10" x="2.7" y="1.4" width="28.9" height="28.9" rx="14.4" ry="14.4"/>
          </g>
        </g>
        <rect id="Circle" class="cls-8" x="2.7" y="1.4" width="28.9" height="28.9" rx="14.4" ry="14.4"/>
        <path class="cls-7" d="M17.1,1.4C9.2,1.4,2.7,7.9,2.7,15.7h14.4V1.4Z"/>
        <path class="cls-4" d="M17.1,1.4c8,0,14.4,6.5,14.4,14.4h-14.4V1.4Z"/>
        <g class="cls-13">
          <g>
            <g id="Ambient">
              <g class="cls-3">
                <rect class="cls-10" y="7.7" width="16.2" height="16.2" rx="1.4" ry="1.4"/>
              </g>
              <g class="cls-1">
                <rect class="cls-10" y="7.7" width="16.2" height="16.2" rx="1.4" ry="1.4"/>
              </g>
            </g>
            <rect id="Light_Gradient" data-name="Light Gradient" class="cls-6" y="-.4" width="32.5" height="32.5"/>
            <path id="Light_Circle" data-name="Light Circle" class="cls-6" d="M30.9,11.5c-.3-.9-.6-1.8-1.1-2.6-2.5-4.6-7.4-7.5-12.7-7.5h0C9.2,1.4,2.7,7.9,2.7,15.7h0c0,8,6.5,14.4,14.4,14.4s14.4-6.5,14.4-14.4-.2-2.9-.7-4.3h.1Z"/>
          </g>
        </g>
        <rect class="cls-9" y="7.7" width="16.2" height="16.2" rx="1.4" ry="1.4"/>
        <g class="cls-12">
          <rect class="cls-5" y="7.7" width="16.2" height="16.2" rx="1.4" ry="1.4"/>
        </g>
        <path class="cls-10" d="M8.2,11.4c.9,0,1.7.2,2.4.7.6.5.9,1.2.8,2,0,1.1-.6,2.1-1.6,2.6s-1.2.4-1.8.4h-1.7v3.1h-1.7v-8.7h3.6ZM6.4,15.7h1.5c.5,0,.9,0,1.3-.4s.5-.7.4-1.1c0-1-.6-1.5-1.7-1.5h-1.5s0,3,0,3Z"/>
        <polyline class="cls-6" points="0 32 0 -.4 32.5 -.4 32.5 32"/>
      </g>
    </g>
    <g id="TrapLine">
      <rect class="cls-6" x="-15.8" y="-16.3" width="64" height="64"/>
    </g>
  </g>
</svg>