<?xml version="1.0" encoding="UTF-8"?>
<svg xmlns="http://www.w3.org/2000/svg" version="1.1" viewBox="0 0 191.1 191.1">
  <defs>
    <style>
      .cls-1 {
        fill: #fff;
        stroke: #000;
        stroke-miterlimit: 10;
      }

      .cls-2 {
        fill: #ed225d;
        stroke-width: 0px;
      }
    </style>
  </defs>
  <g id="Layer_2" data-name="Layer 2">
    <rect class="cls-1" x="9.2" y="24" width="175" height="163.4"/>
  </g>
  <g id="Layer_1" data-name="Layer 1">
    <path class="cls-2" d="M58.2,108.2c-1.4-1.7-3.1-3.2-5.1-4.2-2.1-1.1-4.5-1.6-7.3-1.6s-5,.6-7,1.7c-2.1,1.1-3.8,2.5-5.3,4.3-1.5,1.8-2.6,3.7-3.3,6-.8,2.2-1.1,4.5-1.1,6.7s.4,4.4,1.1,6.6c.8,2.2,1.9,4.2,3.3,5.9,1.5,1.8,3.2,3.2,5.3,4.2,2.1,1.1,4.4,1.6,7,1.6s5.2-.6,7.3-1.7,3.8-2.5,5.1-4.3c1.4-1.8,2.4-3.7,3-6,.7-2.2,1-4.5,1-6.7s-.3-4.4-1-6.6c-.7-2.2-1.7-4.2-3-5.9Z"/>
    <path class="cls-2" d="M0,0v191.1h191.1V0H0ZM74.9,132.6c-1.3,3.7-3.2,6.9-5.6,9.7s-5.4,4.9-8.8,6.6c-3.5,1.6-7.4,2.4-11.8,2.4s-7.8-.8-11.2-2.5c-3.4-1.7-6-3.9-7.8-6.8h-.2v36.3h-14.3v-86h13.7v8h.4c.7-1.1,1.6-2.2,2.8-3.4s2.6-2.2,4.2-3.1c1.7-.9,3.6-1.7,5.7-2.3,2.1-.6,4.5-.9,7.1-.9,4.1,0,7.8.8,11.2,2.3,3.4,1.6,6.4,3.7,8.8,6.4,2.5,2.7,4.4,5.9,5.7,9.6,1.4,3.7,2,7.6,2,11.8s-.7,8.2-2,11.9ZM136.4,134.5c-1.6,3.7-3.8,6.8-6.6,9.4-2.8,2.5-6.1,4.5-9.8,5.9s-7.7,2-11.9,2c-7.1,0-13.1-1.7-17.9-5-3.3-2.3-6-5.1-8.1-8.6l10.4-9.7h.2c1.2,3.3,3.2,6,6,8,2.8,2,6.1,3,9.9,3s4.2-.4,6.1-1.1c1.9-.7,3.6-1.7,5-3.1,1.4-1.4,2.6-3,3.4-5.1.8-2,1.3-4.3,1.3-6.9s-.6-6-1.7-8.1c-1.1-2.1-2.6-3.9-4.4-5.2s-3.8-2.2-6-2.7c-2.2-.5-4.5-.8-6.8-.8s-3.3.1-5.1.4c-1.8.2-3.5.6-5.3,1-1.7.4-3.4.9-5,1.5-1.6.6-3.1,1.2-4.4,1.8l1.4-46.2h48.1v12.9h-34.5l-.8,18.3c1.4-.4,3-.7,4.8-.8,1.9-.2,3.6-.2,5.1-.2,4.1,0,8,.6,11.5,1.8,3.5,1.2,6.6,2.9,9.3,5.2,2.6,2.3,4.7,5.1,6.1,8.4,1.5,3.3,2.2,7.1,2.2,11.4,0,4.7-.8,8.9-2.4,12.6ZM173.8,87.1l-5.2,3.8-5.4-7.2-5.3,7-5.1-3.9,5.2-7.1-8.4-3,2-6.1,8.4,2.7v-8.7h6.8v8.7l8.4-2.5,2,6.1-8.3,2.8,5.2,7.3Z"/>
  </g>
</svg>