<?xml version="1.0" encoding="UTF-8"?>
<svg id="Layer_1" data-name="Layer 1" xmlns="http://www.w3.org/2000/svg" version="1.1" xmlns:xlink="http://www.w3.org/1999/xlink" viewBox="0 0 256 256">
  <defs>
    <style>
      .cls-1 {
        fill: url(#linear-gradient);
      }

      .cls-1, .cls-2 {
        stroke-width: 0px;
      }

      .cls-2 {
        fill: url(#linear-gradient-2);
      }
    </style>
    <linearGradient id="linear-gradient" x1="-826.5" y1="666.2" x2="-825.8" y2="665.5" gradientTransform="translate(156546.8 126473.7) scale(189.4 -189.8)" gradientUnits="userSpaceOnUse">
      <stop offset="0" stop-color="#387eb8"/>
      <stop offset="1" stop-color="#366994"/>
    </linearGradient>
    <linearGradient id="linear-gradient-2" x1="-826.4" y1="666.1" x2="-825.7" y2="665.4" gradientTransform="translate(156612.8 126538) scale(189.4 -189.8)" gradientUnits="userSpaceOnUse">
      <stop offset="0" stop-color="#ffe052"/>
      <stop offset="1" stop-color="#ffc331"/>
    </linearGradient>
  </defs>
  <path class="cls-1" d="M126.9,1c-64.8,0-60.8,28.1-60.8,28.1v29.1h61.9v8.7H41.6S.1,62.3.1,127.7c0,65.4,36.2,63.1,36.2,63.1h21.6v-30.4s-1.2-36.2,35.6-36.2h61.4s34.5.6,34.5-33.3v-56S194.7,1,126.9,1h0ZM92.8,20.6c6.2,0,11.1,5,11.1,11.1s-5,11.1-11.1,11.1c-6.2,0-11.1-5-11.1-11.1,0-6.2,5-11.1,11.1-11.1h0Z"/>
  <path class="cls-2" d="M128.8,255c64.8,0,60.8-28.1,60.8-28.1v-29.1h-61.9v-8.7h86.4s41.5,4.7,41.5-60.7c0-65.4-36.2-63.1-36.2-63.1h-21.6v30.4s1.2,36.2-35.6,36.2h-61.4s-34.5-.6-34.5,33.3v56s-5.2,33.9,62.5,33.9h0ZM162.9,235.4c-6.2,0-11.1-5-11.1-11.1s5-11.1,11.1-11.1,11.1,5,11.1,11.1c0,6.2-5,11.1-11.1,11.1h0Z"/>
</svg>