<?xml version="1.0" encoding="UTF-8"?>
<svg id="Layer_1" data-name="Layer 1" xmlns="http://www.w3.org/2000/svg" version="1.1" viewBox="0 0 102.7 122.9">
  <defs>
    <style>
      .cls-1 {
        fill: #fff;
        fill-rule: evenodd;
        stroke-width: 0px;
      }
    </style>
  </defs>
  <path class="cls-1" d="M31.2,37c-1.1,0-2,.3-2.5.7-.3.2-.6.5-.7.8-.2.4-.2.8-.2,1.3,0,1.5.9,3.5,2.4,5.8h0s5,8,5,8c2,3.2,4.1,6.5,6.8,8.9,2.5,2.3,5.6,3.9,9.7,3.9,4.4,0,7.6-1.6,10.2-4,2.7-2.5,4.8-6,7-9.5l5.7-9.3c1.1-2.4,1.4-4,1.2-5-.1-.6-.8-.8-1.8-.9-.2,0-.5,0-.7,0-.2,0-.5,0-.8,0-.2,0-.3,0-.4,0-.5,0-1,0-1.6,0l1.9-8.6c-14.4,2.3-25.2-8.4-40.4-2.1l1.1,10.1c-.6,0-1.2,0-1.8,0h0ZM35.5,98.1h3.2c2.1,0,3.5,0,4.2.3s1.3.5,1.7.9c.4.4.6.9.7,1.4,0,.5.1,1.6.1,3.2v5.8c0,1.5,0,2.5-.2,3s-.4.9-.7,1.2-.8.5-1.3.6c-.5.1-1.3.2-2.3.2h-5.4v-16.5h0ZM39.8,100.9v10.9c.6,0,1-.1,1.1-.4.1-.2.2-.9.2-2v-6.4c0-.8,0-1.2,0-1.4,0-.2-.2-.4-.3-.5-.2-.1-.5-.2-.9-.2h0ZM47.7,98.1h7.2v3.3h-2.9v3.2h2.7v3.1h-2.7v3.6h3.2v3.3h-7.5v-16.5h0ZM67.3,98.1l-2.2,16.5h-6.5l-2.5-16.5h4.5c.5,4.6.9,8.4,1.1,11.5.2-3.2.5-6,.7-8.5l.3-3.1h4.5ZM31.7,97.2v3.1h-.4c-.4,0-.7,0-.9.2-.2.2-.3.4-.4.8,0,.2,0,.7,0,1.6s-.1,1.5-.3,2c-.1.4-.3.7-.5.9-.2.2-.5.3-.9.5.4.2.7.4.9.6.2.2.4.5.5,1,.1.4.2,1.1.2,2.1s0,1.4.1,1.7c0,.3.2.4.4.6.2.1.6.2,1.2.2v3.1h-1.2c-1.2,0-2.1-.1-2.6-.4-.5-.3-.9-.7-1.1-1.2-.2-.5-.3-1.3-.3-2.3s0-.5,0-.7c0-.1,0-.3,0-.4,0-.7,0-1.3-.2-1.6-.1-.3-.3-.5-.6-.7-.2-.1-.6-.2-1.1-.2v-3.2c.5,0,.9,0,1.1-.2s.4-.4.6-.7.2-.8.2-1.6v-.3c0-.2,0-.3,0-.4,0-1.1,0-1.9.3-2.4.2-.5.4-.9.8-1.2.2-.2.6-.4,1-.5.6-.1,1.2-.2,1.9-.2h1.3ZM71.1,97.2v3.1h.4c.4,0,.7,0,.9.2s.3.4.4.8c0,.2,0,.7,0,1.6s0,1.5.3,2c.1.4.3.7.5.9.2.2.5.3.9.5-.4.2-.7.4-.9.6-.2.2-.4.5-.5,1s-.2,1.1-.2,2.1,0,1.4-.1,1.7c0,.3-.2.4-.4.6-.2.1-.6.2-1.2.2v3.1h1.2c1.2,0,2.1-.1,2.6-.4.5-.3.9-.7,1.1-1.2s.3-1.3.3-2.3,0-.5,0-.7c0-.1,0-.3,0-.4,0-.7,0-1.3.2-1.6s.3-.5.6-.7c.2-.1.6-.2,1.1-.2v-3.2c-.5,0-.9,0-1.1-.2-.2-.2-.4-.4-.6-.7s-.2-.8-.2-1.6v-.3c0-.2,0-.3,0-.4,0-1.1,0-1.9-.3-2.4-.2-.5-.4-.9-.8-1.2-.2-.2-.6-.4-1-.5-.6-.1-1.2-.2-1.9-.2h-1.3ZM75.7,35.2h0c.2-8.8,1.8-17.6-4.4-24.8C66.9,5.2,55.3.4,47.8,0c-3.2-.2-2,2.4-5.1,3.5-6.5,2.2-12.1,7-14,13.5-.3,1.1-.5,2.2-.6,3.3-.2,4.6,0,10,.2,14.4-.5.2-.9.4-1.2.6-.8.5-1.4,1.2-1.7,2-.4.8-.5,1.7-.5,2.6,0,2.1,1,4.6,2.9,7.3l5,8c1.8,2.8,3.6,5.7,5.8,8.1-.1.3,0,0,0,.2-.6,1.9-1.7,5-2.6,6.8-6.1,4-20.1,5-25.5,8.1C-4.4,86.6,1,103.6.8,117.7c.3,3.1,2.1,4.9,5.6,5.2h3.8l-4.2-31.5c-.3-2.4,1.4-4.5,3.6-4.5h42.5c-.8-5.1-14-10-14.5-13.9.1,0,.2-.2.3-.3,1.1-1.6,2.3-4.8,3.1-7.2,2.8,2.3,6.2,3.8,10.6,3.8,3.9,0,7-1.1,9.7-2.8.3.4.5.8.8,1.2,1.2,1.8,2.7,4,4.1,5.5-.3,4.4-11.7,4.4-13,13.8h40.7c2.1,0,3.9,2,3.6,4.5l-4.2,31.5h3.8c3.5-.3,5.3-2.1,5.6-5.2-1-13.3,4-31.8-9.7-39.3-5.4-3-19.1-4-25.3-7.9-1.1-1.3-2.2-3-3.2-4.4-.3-.5-.6-.9-.9-1.3h.2c3-2.9,5.2-6.6,7.4-10.2l5.7-9.5s0-.1,0-.2h0c1.3-3,1.8-5.3,1.4-6.9-.4-1.5-1.3-2.4-2.7-2.8h0Z"/>
</svg>