<svg width="100" height="168" viewBox="0 0 100 168" fill="none" xmlns="http://www.w3.org/2000/svg">
<rect width="100" height="168" rx="14" fill="#7C7988"/>
<rect x="12" y="15" width="76" height="26" rx="6" fill="#D9D9D9"/>
<rect x="12" y="62" width="16.6575" height="16.8767" rx="8.32877" fill="#D9D9D9"/>
<rect x="12" y="82.041" width="16.6575" height="16.8767" rx="8.32877" fill="#D9D9D9"/>
<rect x="12" y="102.082" width="16.6575" height="16.8767" rx="8.32877" fill="#D9D9D9"/>
<rect x="12" y="122.124" width="16.6575" height="16.8767" rx="8.32877" fill="#D9D9D9"/>
<rect x="31.7808" y="62" width="16.6575" height="16.8767" rx="8.32877" fill="#D9D9D9"/>
<rect x="31.7808" y="82.041" width="16.6575" height="16.8767" rx="8.32877" fill="#D9D9D9"/>
<rect x="31.7808" y="102.082" width="16.6575" height="16.8767" rx="8.32877" fill="#D9D9D9"/>
<rect x="31.7808" y="122.124" width="16.6575" height="16.8767" rx="8.32877" fill="#D9D9D9"/>
<rect x="51.5615" y="62" width="16.6575" height="16.8767" rx="8.32877" fill="#D9D9D9"/>
<rect x="51.5615" y="82.041" width="16.6575" height="16.8767" rx="8.32877" fill="#D9D9D9"/>
<rect x="51.5615" y="102.082" width="16.6575" height="16.8767" rx="8.32877" fill="#D9D9D9"/>
<rect x="51.5615" y="122.124" width="16.6575" height="16.8767" rx="8.32877" fill="#D9D9D9"/>
<rect x="71.3425" y="62" width="16.6575" height="16.8767" rx="8.32877" fill="#85CDB4"/>
<rect x="71.3423" y="82.041" width="16.6575" height="16.8767" rx="8.32877" fill="#85CDB4"/>
<rect x="71.3423" y="102.082" width="16.6575" height="16.8767" rx="8.32877" fill="#85CDB4"/>
<rect x="71.3423" y="122.124" width="16.6575" height="16.8767" rx="8.32877" fill="#F3A482"/>
</svg>
