<?xml version="1.0" encoding="UTF-8"?>
<svg xmlns="http://www.w3.org/2000/svg" width="100" height="168" viewBox="0 0 100 168">
  <defs>
    <style>
      .cls-1 {
        fill: #fff;
      }

      .cls-1, .cls-2, .cls-3, .cls-4 {
        stroke: #4d495a;
        stroke-miterlimit: 10;
        stroke-width: 4px;
      }

      .cls-5, .cls-6, .cls-7, .cls-8 {
        stroke-width: 0px;
      }

      .cls-5, .cls-3 {
        fill: #4d495a;
      }

      .cls-6 {
        fill: #85cdb4;
      }

      .cls-2 {
        fill: #7c7988;
      }

      .cls-7 {
        fill: #f3a482;
      }

      .cls-8, .cls-4 {
        fill: #ced1d5;
      }
    </style>
  </defs>
  <g id="Layer_4" data-name="Layer 4">
    <path class="cls-5" d="M12,0h88v168H12c-6.62,0-12-5.38-12-12V12C0,5.38,5.38,0,12,0Z"/>
  </g>
  <g id="Layer_2" data-name="Layer 2">
    <rect class="cls-6" x="15.88" y="15.09" width="59.92" height="44.93"/>
    <rect class="cls-7" x="15.88" y="68.6" width="59.92" height="16.66"/>
    <rect class="cls-7" x="15.88" y="90.84" width="59.92" height="16.66"/>
    <rect class="cls-7" x="15.88" y="113.07" width="59.92" height="16.66"/>
    <rect class="cls-7" x="15.88" y="135.3" width="59.92" height="16.66"/>
    <rect class="cls-6" x="80.97" y="15.09" width="19.03" height="44.93"/>
    <rect class="cls-8" x="80.97" y="68.6" width="19.03" height="16.66"/>
    <rect class="cls-8" x="80.97" y="90.84" width="19.03" height="16.66"/>
    <rect class="cls-8" x="80.97" y="113.07" width="19.03" height="16.66"/>
    <rect class="cls-8" x="80.97" y="135.3" width="19.03" height="16.66"/>
    <g>
      <rect class="cls-2" x="55.63" y="75.96" width="11.35" height="48.11" rx="3.59" ry="3.59" transform="translate(-40.18 41.16) rotate(-28.38)"/>
      <rect class="cls-3" x="63.64" y="101.23" width="19.24" height="41.83" rx="8.46" ry="8.46" transform="translate(-49.26 49.51) rotate(-28.38)"/>
      <circle class="cls-4" cx="38.6" cy="58.87" r="32.9"/>
      <circle class="cls-1" cx="38.6" cy="58.87" r="22.94"/>
    </g>
  </g>
</svg>