<?xml version="1.0" encoding="UTF-8"?>
<svg id="Layer_4" data-name="Layer 4" xmlns="http://www.w3.org/2000/svg" width="125.91" height="195.52" viewBox="0 0 125.91 195.52">
  <defs>
    <style>
      .cls-1 {
        fill: #f3a482;
        stroke-width: 0px;
      }

      .cls-2 {
        fill: none;
        stroke: #ced1d5;
        stroke-linecap: round;
        stroke-linejoin: round;
        stroke-width: 4px;
      }
    </style>
  </defs>
  <path class="cls-1" d="M33.91,25.52h50.73v100.29H23.91V35.52c0-5.52,4.48-10,10-10Z"/>
  <path class="cls-1" d="M91.74,25.52h22.18c5.52,0,10,4.48,10,10v90.29h-32.18V25.52h0Z"/>
  <path class="cls-1" d="M91.74,132.9h32.18v50.62c0,5.52-4.48,10-10,10h-22.18v-60.62h0Z"/>
  <path class="cls-1" d="M24.03,132.9h60.62v60.62h-50.62c-5.52,0-10-4.48-10-10v-50.62h0Z"/>
  <g>
    <line class="cls-2" x1="23.91" y1="10.29" x2="35.69" y2="2"/>
    <line class="cls-2" x1="23.91" y1="10.62" x2="35.69" y2="18.91"/>
  </g>
  <g>
    <line class="cls-2" x1="123.91" y1="10.29" x2="112.14" y2="2"/>
    <line class="cls-2" x1="123.91" y1="10.62" x2="112.14" y2="18.91"/>
  </g>
  <line class="cls-2" x1="23.91" y1="10.29" x2="123.91" y2="10.29"/>
  <g>
    <line class="cls-2" x1="10.29" y1="193.52" x2="2" y2="181.74"/>
    <line class="cls-2" x1="10.62" y1="193.52" x2="18.91" y2="181.74"/>
  </g>
  <g>
    <line class="cls-2" x1="10.29" y1="25.52" x2="2" y2="37.29"/>
    <line class="cls-2" x1="10.62" y1="25.52" x2="18.91" y2="37.29"/>
  </g>
  <line class="cls-2" x1="10.29" y1="193.52" x2="10.29" y2="25.52"/>
</svg>