<?xml version="1.0" encoding="UTF-8"?>
<svg xmlns="http://www.w3.org/2000/svg" version="1.1" viewBox="0 0 100 168">
  <defs>
    <style>
      .cls-1, .cls-2, .cls-3 {
        stroke: #302e38;
        stroke-width: 4px;
      }

      .cls-1, .cls-3 {
        fill: none;
      }

      .cls-1, .cls-4 {
        stroke-linecap: round;
        stroke-linejoin: round;
      }

      .cls-5 {
        fill: #7c7988;
      }

      .cls-5, .cls-6, .cls-7, .cls-8, .cls-9, .cls-10, .cls-11, .cls-12 {
        stroke-width: 0px;
      }

      .cls-6 {
        fill: #4152a4;
      }

      .cls-2, .cls-3 {
        stroke-miterlimit: 10;
      }

      .cls-2, .cls-10 {
        fill: #fff;
      }

      .cls-7 {
        fill: #4d495a;
      }

      .cls-8 {
        fill: #85cdb4;
      }

      .cls-4 {
        fill: #302e38;
        stroke: #fff;
        stroke-width: .75px;
      }

      .cls-9 {
        fill: #f3a482;
      }

      .cls-11 {
        fill: #ced1d5;
      }

      .cls-12 {
        fill: #0b0b0b;
      }
    </style>
  </defs>
  <g id="Palette">
    <g>
      <rect class="cls-4" x="-51.45" y="7.69" width="7.99" height="5.95"/>
      <rect class="cls-9" x="-39" y="7.69" width="9.67" height="5.76"/>
      <rect class="cls-11" x="-26.55" y="7.69" width="10.59" height="5.76"/>
      <rect class="cls-12" x="-51.45" y="15.69" width="7.99" height="5.95"/>
      <rect class="cls-7" x="-39" y="15.69" width="9.67" height="6.69"/>
      <rect class="cls-5" x="-25.8" y="15.69" width="12.45" height="8.18"/>
      <rect class="cls-8" x="-53.31" y="25.17" width="10.97" height="7.06"/>
    </g>
  </g>
  <g id="Layer_2" data-name="Layer 2">
    <rect class="cls-11" x=".56" y="0" width="99.44" height="168" rx="9.88" ry="9.88"/>
  </g>
  <g id="Layer_3" data-name="Layer 3">
    <rect class="cls-10" x="12.38" y="7.68" width="75.23" height="142.45" rx="4.46" ry="4.46"/>
    <rect class="cls-6" x="12.38" y="49.66" width="75.23" height="21.23"/>
    <rect class="cls-10" x="12.38" y="7.68" width="75.23" height="20.86" rx="4.46" ry="4.46"/>
    <rect class="cls-3" x="12.38" y="7.7" width="75.23" height="20.86" rx="4.46" ry="4.46"/>
    <path class="cls-2" d="M50,7.7"/>
    <polyline class="cls-1" points="71.84 16.11 75.87 20.31 79.79 16.22"/>
    <path class="cls-1" d="M47.14,164.1l33.09-70.12c2.47-5.23,9.86-6.92,16.52-3.78h0c6.19,2.92,9.34,9.23,7.05,14.09l-30.2,63.99c-1.77,3.75-7.08,4.97-11.86,2.71h0c-4.33-2.04-6.56-6.49-4.95-9.89l25.94-54.95c.96-2.04,3.85-2.7,6.45-1.47h0c2.08.98,3.14,3.1,2.37,4.73l-24.65,52.22"/>
  </g>
</svg>