<?xml version="1.0" encoding="UTF-8"?>
<svg id="Layer_2" data-name="Layer 2" xmlns="http://www.w3.org/2000/svg" width="100" height="168" viewBox="0 0 100 168">
  <defs>
    <style>
      .cls-1 {
        fill: #7c7988;
      }

      .cls-1, .cls-2, .cls-3 {
        stroke-width: 0px;
      }

      .cls-2 {
        fill: #85cdb4;
      }

      .cls-3 {
        fill: #ced1d5;
      }
    </style>
  </defs>
  <path class="cls-1" d="M15.92,0h84.08v168H15.92C7.13,168,0,160.87,0,152.08V15.92C0,7.13,7.13,0,15.92,0Z"/>
  <rect class="cls-3" x="11.78" y="16.92" width="24.97" height="24.97" rx="6.5" ry="6.5"/>
  <rect class="cls-3" x="42.77" y="16.92" width="24.97" height="24.97" rx="6.5" ry="6.5"/>
  <rect class="cls-3" x="73.76" y="16.92" width="24.97" height="24.97" rx="6.5" ry="6.5"/>
  <rect class="cls-2" x="11.78" y="46.63" width="34.67" height="24.97" rx="6.5" ry="6.5"/>
  <rect class="cls-3" x="52.47" y="46.63" width="24.97" height="24.97" rx="6.5" ry="6.5"/>
  <path class="cls-2" d="M89.96,46.63h10.04v24.97h-10.04c-3.59,0-6.5-2.91-6.5-6.5v-11.96c0-3.59,2.91-6.5,6.5-6.5Z"/>
  <rect class="cls-2" x="11.78" y="77.5" width="42.53" height="24.97" rx="6.5" ry="6.5"/>
  <rect class="cls-2" x="60.33" y="77.5" width="24.97" height="24.97" rx="6.5" ry="6.5"/>
  <rect class="cls-2" x="11.78" y="111.39" width="34.67" height="24.97" rx="6.5" ry="6.5"/>
  <rect class="cls-3" x="51.64" y="111.39" width="24.97" height="24.97" rx="6.5" ry="6.5"/>
  <path class="cls-3" d="M89.13,111.39h10.87v24.97h-10.87c-3.59,0-6.5-2.91-6.5-6.5v-11.96c0-3.59,2.91-6.5,6.5-6.5Z"/>
  <path class="cls-3" d="M96.23,77.5h3.77v24.97h-3.77c-3.59,0-6.5-2.91-6.5-6.5v-11.96c0-3.59,2.91-6.5,6.5-6.5Z"/>
</svg>