<?xml version="1.0" encoding="UTF-8"?>
<svg xmlns="http://www.w3.org/2000/svg" width="101.65" height="164.34" viewBox="0 0 101.65 164.34">
  <defs>
    <style>
      .cls-1 {
        fill: none;
        stroke: #302e38;
        stroke-miterlimit: 10;
      }
    </style>
  </defs>
  <g id="Layer_3" data-name="Layer 3">
    <path class="cls-1" d="M74.61,25.05s-1.31.13-3.4.46"/>
    <line class="cls-1" x1="58.33" y1="100.5" x2="58.33" y2="163.84"/>
    <line class="cls-1" x1="41.62" y1="100.5" x2="41.62" y2="163.84"/>
    <circle class="cls-1" cx="33.75" cy="120.06" r="2.91"/>
    <circle class="cls-1" cx="33.75" cy="146.27" r="2.91"/>
    <line class="cls-1" x1="11.2" y1="163.84" x2="87.88" y2="163.84"/>
    <polygon class="cls-1" points="31.47 89.1 31.47 95.81 44.93 100.98 44.93 93.92 31.47 89.1"/>
    <polygon class="cls-1" points="68.29 89.1 68.29 95.81 54.83 100.98 54.83 93.92 68.29 89.1"/>
  </g>
  <g id="Layer_2" data-name="Layer 2">
    <path class="cls-1" d="M21.19,98.58c-1.11-.67-2.16-1.81-2.96-3.68,4.33.52,8.26-6.72,8.26-6.72-7.64,4.65-8.67,6.46-13.21.77,3.92-1.03,6.4-6.97,6.4-6.97,0,0-5.99,4.39-10.53,0,2.06-3.36,3.92-4.39,5.37-10.59-7.64,1.55-9.5,3.87-13.62-2.84,4.95-.52,6.9-1.91,10.53-7.56"/>
    <path class="cls-1" d="M71.21,25.52c-12.61,1.7-42.46,7.19-46.53,21.46-6.05,21.25-18.93,13.35-22.33,8.74,6.8.24,8.74-.49,9.47-1.94-5.58-.24-8.5-1.21-10.92-6.8,4.61,1.46,10.44,4.85,9.47-12.14-.57-6.79,14.29-43.33,51.46-32.28,13.08,5.6,15.78,8.01,22.33,29.61,2.69,8.62,5.34,12.62,12.86,13.59-4.85,1.94-11.41,10.68,3.88,10.44-1.94,4.61-4.61,7.89-13.35,5.16,3.4,3.34,5.34,4.31,10.19,3.09-2.43,2.91-3.88,11.41-16.26,8.74.24,6.55-.49,14.56,12.38,10.44-5.23,4.9-6.05,6.12-15.53,4.61,1.46,1.46,2.67,3.29,6.55,3.4-.92,2.64-3.93,4.35-8.07,5.41"/>
    <path class="cls-1" d="M68.29,94.87h.89c6.33,0,12.18,6.4,13.03,14.6l5.66,54.37"/>
    <line class="cls-1" x1="44.93" y1="94.87" x2="54.83" y2="94.87"/>
    <path class="cls-1" d="M11.2,163.84l5.66-54.37c.85-8.2,6.7-14.6,13.03-14.6h1.58"/>
    <path class="cls-1" d="M67.46,26.07c5.15,6.24,8.38,15.15,8.38,25.03,0,18.89-11.78,34.2-26.3,34.2s-26.3-15.31-26.3-34.2"/>
  </g>
</svg>